<svg xmlns="http://www.w3.org/2000/svg" xmlns:xlink="http://www.w3.org/1999/xlink" viewBox="0 0 7014.3 7014.3">
  <style>
    .st1{fill:none;stroke:#92989c;stroke-width:9;stroke-linecap:round;stroke-linejoin:round}.st8{fill:#92989c}.st52{display:none}.st53{fill:#92989c}.st53,.st54{display:inline}.st55{fill:#fff}.st56{font-family:&apos;HelveticaNeue-Bold&apos;}.st57{font-size:49.2427px}.st58{letter-spacing:2}.st59{font-size:49.2429px}.st60{fill:#e6007e}.st61{fill:#4cace1}.st62{fill:#169ad3}.st63{fill:none;stroke:#dadada;stroke-width:3}.st64{fill:#d1d7da}.st65{fill:#f6f6f6}.st66{font-size:65.0377px}.st67{letter-spacing:3}.st68{fill:#9d9d9c}.st69{font-family:&apos;HelveticaNeue-Medium&apos;}.st70{font-size:49.2428px}.st71{font-size:49.2513px}.st72{font-size:49.2535px}.st74,.st85{stroke:#e6007e;stroke-linecap:round;stroke-linejoin:round}.st74{fill:none;stroke-width:9}.st85{stroke-width:11}.st85,.st87{fill:none}.st90{fill:#1794cb;stroke:#e6007e;stroke-width:16.2594}
  </style>
  <path id="bgbg" fill="#ededed" d="M-219.8-192h7465.4v7396.8H-219.8z"/>
  <g id="BG-Sealines-existing">
    <g id="Existing_2_">
      <g id="Existing_1_">
        <path d="M111.3 1203.2h92.4l35.4-35.4" class="st1"/>
        <path fill="none" stroke="#92989c" stroke-dasharray="91.0812,22.7703" stroke-linecap="round" stroke-linejoin="round" stroke-width="9" d="M255.2 1151.7l314-314"/>
        <path d="M577.2 829.7l11.1-11.1v-34.3M114.5 1314.6h50" class="st1"/>
        <path fill="none" stroke="#92989c" stroke-dasharray="84.0802,21.02" stroke-linecap="round" stroke-linejoin="round" stroke-width="9" d="M185.5 1314.6h304.8"/>
        <path d="M500.8 1314.6h50M1852.3 6153.7h-50" class="st1"/>
        <path fill="none" stroke="#92989c" stroke-dasharray="91.0622,22.7656" stroke-linecap="round" stroke-linejoin="round" stroke-width="9" d="M1779.6 6153.7h-102.5"/>
        <path d="M1665.8 6153.7h-50l-35.4-35.4" class="st1"/>
        <path fill="none" stroke="#92989c" stroke-dasharray="106.6924,26.6731" stroke-linecap="round" stroke-linejoin="round" stroke-width="9" d="M1561.5 6099.5l-269.2-269.2v-406.2"/>
        <path d="M1292.3 5410.8v-50l-35.3-35.4" class="st1"/>
        <path fill="none" stroke="#92989c" stroke-dasharray="106.7448,26.6862" stroke-linecap="round" stroke-linejoin="round" stroke-width="9" d="M1238.1 5306.6l-462.3-462.3"/>
        <path d="M766.3 4834.8l-35.3-35.3v-50" class="st1"/>
        <path fill="none" stroke="#92989c" stroke-dasharray="100.1975,25.0494" stroke-linecap="round" stroke-linejoin="round" stroke-width="9" d="M731 4724.4V2217.6l-480.9-491.5V1136l-149-149.1"/>
        <path d="M92.2 978l-35.3-35.3" class="st1"/>
        <path d="M72.4 939.7l-43.7-25.2 25.2 43.7z" class="st8"/>
        <path d="M1911.5 6287.7h-50" class="st1"/>
        <path fill="none" stroke="#92989c" stroke-dasharray="98.9969,24.7492" stroke-linecap="round" stroke-linejoin="round" stroke-width="9" d="M1836.8 6287.7h-182.1l-387.5-387.5"/>
        <path d="M1258.4 5891.5l-35.3-35.4v-50" class="st1"/>
        <path fill="none" stroke="#92989c" stroke-dasharray="100.8946,25.2236" stroke-linecap="round" stroke-linejoin="round" stroke-width="9" d="M1223.1 5780.9v-383.1L659.8 4832l2.7-2579.7-485.7-496.2v-591.3l-76.7-80.9"/>
        <path d="M91.4 1074.8L57 1038.5" class="st1"/>
        <path d="M72.6 1036l-43-26.4 24.1 44.4z" class="st8"/>
        <path d="M182.9 1290.3h50" class="st1"/>
        <path fill="none" stroke="#92989c" stroke-dasharray="96.6298,24.1574" stroke-linecap="round" stroke-linejoin="round" stroke-width="9" d="M257.1 1290.3h229.5"/>
        <path d="M498.7 1290.3h50M580.4 762l-35.6 35.1" class="st1"/>
        <path fill="none" stroke="#92989c" stroke-dasharray="88.8556,22.2139" stroke-linecap="round" stroke-linejoin="round" stroke-width="9" d="M529 812.7l-308.7 303.9"/>
        <path d="M212.4 1124.4l-35.6 35.1" class="st1"/>
        <g>
          <path d="M581.9 790.9l-35.3 35.4" class="st1"/>
          <path fill="none" stroke="#92989c" stroke-dasharray="98.4752,24.6188" stroke-linecap="round" stroke-linejoin="round" stroke-width="9" d="M529.2 843.7l-252.5 252.4"/>
          <path d="M268 1104.8l-17.8 17.9v24.7" class="st1"/>
        </g>
        <g>
          <path d="M61.7 1149.8l35.4 35.3" class="st1"/>
          <path fill="none" stroke="#92989c" stroke-dasharray="108.4449,27.1112" stroke-linecap="round" stroke-linejoin="round" stroke-width="9" d="M113.1 1205.6v528.7"/>
          <path d="M113.1 1747.8v50l35.4 35.4" class="st1"/>
          <path fill="none" stroke="#92989c" stroke-dasharray="110.5238,27.631" stroke-linecap="round" stroke-linejoin="round" stroke-width="9" d="M168 1852.7l381 381"/>
          <path d="M558.8 2243.5l35.3 35.4v50" class="st1"/>
          <path fill="none" stroke="#92989c" stroke-dasharray="98.4153,24.6038" stroke-linecap="round" stroke-linejoin="round" stroke-width="9" d="M594.1 2353.5v2448"/>
          <path d="M594.1 4813.8v50l35.4 35.4" class="st1"/>
          <path fill="none" stroke="#92989c" stroke-dasharray="107.2381,26.8095" stroke-linecap="round" stroke-linejoin="round" stroke-width="9" d="M648.4 4918.2l464.5 464.4"/>
          <path d="M1122.4 5392.1l35.3 35.3v50" class="st1"/>
          <path fill="none" stroke="#92989c" stroke-dasharray="99.4787,24.8697" stroke-linecap="round" stroke-linejoin="round" stroke-width="9" d="M1157.7 5502.3v385.2l246.4 246.4"/>
          <path d="M1412.9 6142.7l35.3 35.4h50" class="st1"/>
          <path fill="none" stroke="#92989c" stroke-dasharray="109.8129,27.4532" stroke-linecap="round" stroke-linejoin="round" stroke-width="9" d="M1525.7 6178.1h260.8"/>
          <path d="M1800.2 6178.1h50" class="st1"/>
          <path d="M58.8 1165.3l-25.2-43.7 43.7 25.3z" class="st8"/>
        </g>
        <g>
          <path d="M594.1 2278.9h50" class="st1"/>
          <path fill="none" stroke="#92989c" stroke-dasharray="107.4789,26.8697" stroke-linecap="round" stroke-linejoin="round" stroke-width="9" d="M671 2278.9h239l11.5-11.5"/>
          <path d="M931 2257.9l35.3-35.4" class="st1"/>
        </g>
        <g>
          <path d="M662.9 2563.2h50" class="st1"/>
          <path fill="none" stroke="#92989c" stroke-dasharray="95.3883,23.8471" stroke-linecap="round" stroke-linejoin="round" stroke-width="9" d="M736.8 2563.2h345.7"/>
          <path d="M1094.5 2563.2h50" class="st1"/>
        </g>
        <g>
          <path d="M730.1 4694.1h50" class="st1"/>
          <path fill="none" stroke="#92989c" stroke-dasharray="98.9404,24.7351" stroke-linecap="round" stroke-linejoin="round" stroke-width="9" d="M804.8 4694.1h482.4"/>
          <path d="M1299.5 4694.1h50" class="st1"/>
        </g>
        <g>
          <path d="M726.6 2649.4h50" class="st1"/>
          <path fill="none" stroke="#92989c" stroke-dasharray="106.8975,26.7244" stroke-linecap="round" stroke-linejoin="round" stroke-width="9" d="M803.3 2649.4h253.9"/>
          <path d="M1070.5 2649.4h50" class="st1"/>
        </g>
        <g>
          <path d="M729.6 2217.6h50" class="st1"/>
          <path fill="none" stroke="#92989c" stroke-dasharray="90.7531,22.6883" stroke-linecap="round" stroke-linejoin="round" stroke-width="9" d="M802.3 2217.6h102.1"/>
          <path d="M915.8 2217.6h50" class="st1"/>
        </g>
        <g>
          <path d="M537 2018.6h50" class="st1"/>
          <path fill="none" stroke="#92989c" stroke-dasharray="85.0295,21.2574" stroke-linecap="round" stroke-linejoin="round" stroke-width="9" d="M608.2 2018.6h202"/>
          <path d="M820.8 2018.6h50" class="st1"/>
        </g>
        <g>
          <path d="M3842.9 5147.8h50" class="st1"/>
          <path fill="none" stroke="#92989c" stroke-dasharray="93.7383,23.4346" stroke-linecap="round" stroke-linejoin="round" stroke-width="9" d="M3916.3 5147.8h457"/>
          <path d="M4385 5147.8h50" class="st1"/>
        </g>
        <g>
          <path d="M3842.4 5178h50" class="st1"/>
          <path fill="none" stroke="#92989c" stroke-dasharray="106.8265,26.7066" stroke-linecap="round" stroke-linejoin="round" stroke-width="9" d="M3919.1 5178h387.3"/>
          <path d="M4319.7 5178h50" class="st1"/>
        </g>
        <g>
          <path d="M3651.8 5711.3h50" class="st1"/>
          <path fill="none" stroke="#92989c" stroke-dasharray="93.9197,23.4799" stroke-linecap="round" stroke-linejoin="round" stroke-width="9" d="M3725.3 5711.3h385.1l217.5-217.4"/>
          <path d="M4336.2 5485.6l35.3-35.4v-50" class="st1"/>
          <path fill="none" stroke="#92989c" stroke-dasharray="99.6265,24.9066" stroke-linecap="round" stroke-linejoin="round" stroke-width="9" d="M4371.5 5375.3v-854.5l880.8-880.8V2016.6"/>
          <path d="M5252.3 2004.1v-50l35.4-35.3" class="st1"/>
          <path fill="none" stroke="#92989c" stroke-dasharray="102.8719,25.718" stroke-linecap="round" stroke-linejoin="round" stroke-width="9" d="M5305.9 1900.7L6753 456.3"/>
          <path d="M6762.1 447.2l35.4-35.3v-50" class="st1"/>
          <path fill="none" stroke="#92989c" stroke-dasharray="80.3812,20.0953" stroke-linecap="round" stroke-linejoin="round" stroke-width="9" d="M6797.5 341.8V150.9"/>
          <path d="M6797.5 140.8v-50" class="st1"/>
          <path d="M6810.5 99.7l-13-48.8-13.1 48.8z" class="st8"/>
        </g>
        <g>
          <path d="M3601.1 5646.1l35.3 35.4" class="st1"/>
          <path fill="none" stroke="#92989c" stroke-dasharray="70.0969,17.5242" stroke-linecap="round" stroke-linejoin="round" stroke-width="9" d="M3648.7 5693.9l55.7 55.9"/>
          <path d="M3710.6 5756l35.2 35.5h50" class="st1"/>
          <path fill="none" stroke="#92989c" stroke-dasharray="105.3698,26.3425" stroke-linecap="round" stroke-linejoin="round" stroke-width="9" d="M3822.2 5791.5h250.2"/>
          <path d="M4085.6 5791.5h50l35-35.8" class="st1"/>
          <path fill="none" stroke="#92989c" stroke-dasharray="98.9648,24.7412" stroke-linecap="round" stroke-linejoin="round" stroke-width="9" d="M4187.9 5738.1l252.1-257.6-4.5-864.3"/>
          <path d="M4435.5 4603.9l-.3-50 35.3-35.5" class="st1"/>
          <path fill="none" stroke="#92989c" stroke-dasharray="99.4598,24.865" stroke-linecap="round" stroke-linejoin="round" stroke-width="9" d="M4488.1 4500.8l829.3-831.7 2.1-1690.4L6870.6 429c4.8-5.6 3.3-165.8 1.7-275.8"/>
          <path d="M6872.2 140.8c-.3-18.9-.6-35.9-.8-50" class="st1"/>
          <path d="M6884.4 99.5l-13.8-48.6-12.3 49z" class="st8"/>
        </g>
        <g>
          <path d="M1912.7 6278l-35.4 35.3M1839.7 6350.9l-35.4 35.4v50" class="st1"/>
          <path fill="none" stroke="#92989c" stroke-dasharray="129.5896,32.3974" stroke-linecap="round" stroke-linejoin="round" stroke-width="9" d="M1813.2 6465l103.1 103.1"/>
          <path d="M1927.7 6579.6l35.4 35.3h50" class="st1"/>
          <path fill="none" stroke="#92989c" stroke-dasharray="103.8912,25.9728" stroke-linecap="round" stroke-linejoin="round" stroke-width="9" d="M2039.1 6614.9h896"/>
          <path d="M2948.1 6614.9h50l35.4-35.3" class="st1"/>
          <path fill="none" stroke="#92989c" stroke-dasharray="88.6685,22.1671" stroke-linecap="round" stroke-linejoin="round" stroke-width="9" d="M3049.1 6563.9l305.7-305.7"/>
          <path d="M3362.6 6250.4l35.4-35.3h50" class="st1"/>
          <path fill="none" stroke="#92989c" stroke-dasharray="96.0907,24.0227" stroke-linecap="round" stroke-linejoin="round" stroke-width="9" d="M3472 6215.1h40.4l213.4-213.4h486.6"/>
          <path d="M4224.4 6001.7h50l35.4-35.4" class="st1"/>
          <path fill="none" stroke="#92989c" stroke-dasharray="93.7578,23.4395" stroke-linecap="round" stroke-linejoin="round" stroke-width="9" d="M4326.3 5949.8l323.2-323.2"/>
          <path d="M4657.8 5618.3l35.4-35.4h50" class="st1"/>
          <path fill="none" stroke="#92989c" stroke-dasharray="97.0156,24.2539" stroke-linecap="round" stroke-linejoin="round" stroke-width="9" d="M4767.4 5582.9h1150.2l464.4-464.4"/>
          <path d="M6390.6 5110l35.3-35.4v-50" class="st1"/>
          <path fill="none" stroke="#92989c" stroke-dasharray="103.8934,25.9733" stroke-linecap="round" stroke-linejoin="round" stroke-width="9" d="M6425.9 4998.6v-609.8l294.2-294.2"/>
          <path d="M6729.3 4085.4l35.4-35.4" class="st1"/>
          <path d="M6767.6 4065.6l25.3-43.8-43.8 25.3z" class="st8"/>
        </g>
        <g>
          <path d="M3593.4 5695.8l35.4 35.4" class="st1"/>
          <path fill="none" stroke="#92989c" stroke-dasharray="83.1395,20.7849" stroke-linecap="round" stroke-linejoin="round" stroke-width="9" d="M3643.5 5745.9l213.1 213.1"/>
          <path d="M3863.9 5966.3l35.4 35.4" class="st1"/>
        </g>
        <g>
          <path d="M4960.2 2350.9h50" class="st1"/>
          <path fill="none" stroke="#92989c" stroke-dasharray="93.207,23.3017" stroke-linecap="round" stroke-linejoin="round" stroke-width="9" d="M5033.5 2350.9h221.4"/>
          <path d="M5266.6 2350.9h50" class="st1"/>
        </g>
        <g>
          <path d="M4960.1 2382.4h50" class="st1"/>
          <path fill="none" stroke="#92989c" stroke-dasharray="127.805,31.9513" stroke-linecap="round" stroke-linejoin="round" stroke-width="9" d="M5042.1 2382.4h143.8"/>
          <path d="M5201.8 2382.4h50" class="st1"/>
        </g>
        <g>
          <path d="M4940 2387.9l35.3-35.3" class="st1"/>
          <path fill="none" stroke="#92989c" stroke-dasharray="56.1635,14.0409" stroke-linecap="round" stroke-linejoin="round" stroke-width="9" d="M4985.2 2342.6l44.7-44.6"/>
          <path d="M5034.9 2293l35.3-35.4 50 .2" class="st1"/>
          <path fill="none" stroke="#92989c" stroke-dasharray="101.3943,25.3486" stroke-linecap="round" stroke-linejoin="round" stroke-width="9" d="M5145.6 2257.8l1254.7 2.8"/>
          <path d="M6413 2260.6l50 .1 35.4-35.4" class="st1"/>
          <path fill="none" stroke="#92989c" stroke-dasharray="76.2496,19.0624" stroke-linecap="round" stroke-linejoin="round" stroke-width="9" d="M6511.8 2211.9l128.1-128.1"/>
          <path d="M6646.6 2077.1l35.4-35.4" class="st1"/>
        </g>
        <g>
          <path d="M5170.3 1974.7h50M5273.2 1974.7h50" class="st1"/>
        </g>
        <g>
          <path d="M4945.3 1974.5h50" class="st1"/>
          <path fill="none" stroke="#92989c" stroke-dasharray="97.7329,24.4332" stroke-linecap="round" stroke-linejoin="round" stroke-width="9" d="M5019.7 1974.5h127.9L6690.3 432.7"/>
          <path d="M6699 424.1l35.3-35.4v-50" class="st1"/>
          <path fill="none" stroke="#92989c" stroke-dasharray="131.9401,32.985" stroke-linecap="round" stroke-linejoin="round" stroke-width="9" d="M6734.3 305.7V157.3"/>
          <path d="M6734.3 140.8v-50" class="st1"/>
          <path d="M6747.4 99.7l-13.1-48.8-13 48.8z" class="st8"/>
        </g>
        <g>
          <path d="M5248.6 2008h-50" class="st1"/>
          <path fill="none" stroke="#92989c" stroke-dasharray="117.739,29.4348" stroke-linecap="round" stroke-linejoin="round" stroke-width="9" d="M5169.1 2008h-132.4"/>
          <path d="M5021.9 2008h-50l-3.9-38.2" class="st1"/>
        </g>
        <g>
          <path d="M6725.6 4260.6l-35.3-35.3M6675.2 4210.2l-35.4-35.3" class="st1"/>
        </g>
      </g>
      <g id="Existing" class="st52">
        <path d="M1328.8 6005.1L1218.7 5895c-4.7-4.7-4.7-12.3 0-17l27.9-27.9c4.7-4.7 12.3-4.7 17 0l110.1 110.1c4.7 4.7 4.7 12.3 0 17l-27.9 27.9c-4.7 4.7-12.3 4.7-17 0z" class="st53"/>
        <g class="st54">
          <text class="st55 st56 st57 st58" transform="matrix(.7236 .7248 -.7077 .7065 1236.241 5895.84)">
            SAT3
          </text>
        </g>
        <g class="st54">
          <path d="M5615.1 2288.6h-153.7c-6.6 0-12-5.4-12-12v-39.4c0-6.6 5.4-12 12-12h153.7c6.6 0 12 5.4 12 12v39.4c0 6.6-5.4 12-12 12z" class="st8"/>
          <text class="st55 st56 st59 st58" transform="matrix(1.0241 .00085 -.00087 1 5468.97 2273.993)">
            SEAS
          </text>
        </g>
        <path d="M5410.8 1755.3l-173.6 173.6c-4.7 4.7-12.3 4.7-17 0l-27.9-27.9c-4.7-4.7-4.7-12.3 0-17l173.6-173.6c4.7-4.7 12.3-4.7 17 0l27.9 27.9c4.7 4.7 4.7 12.3 0 17z" class="st53"/>
        <g class="st54">
          <text class="st55 st56 st57 st58" transform="matrix(.7248 -.7236 .7065 .7077 5248.696 1897.165)">
            TEAMS
          </text>
        </g>
        <path d="M4379.6 5488.8L4206 5662.4c-4.7 4.7-12.3 4.7-17 0l-27.9-27.9c-4.7-4.7-4.7-12.3 0-17l173.6-173.6c4.7-4.7 12.3-4.7 17 0l27.9 27.9c4.7 4.7 4.7 12.3 0 17z" class="st53"/>
        <g class="st54">
          <text class="st55 st56 st57 st58" transform="matrix(.7248 -.7236 .7065 .7077 4218.85 5625.607)">
            EASSY
          </text>
        </g>
        <path d="M4045.2 5816h-245.5c-6.6 0-12-5.4-12-12v-39.4c0-6.6 5.4-12 12-12h245.5c6.6 0 12 5.4 12 12v39.4c0 6.6-5.4 12-12 12z" class="st53"/>
        <g class="st54">
          <text class="st60 st56 st59 st58" transform="matrix(1.0241 .00085 -.00087 1 3807.282 5801.328)">
            SEACOM
          </text>
          <text class="st55 st56 st59 st58" transform="matrix(1.0241 .00085 -.00087 1 3807.282 5801.328)">
            SEACOM
          </text>
        </g>
        <path d="M4096.4 6033.4h-153.7c-6.6 0-12-5.4-12-12V5982c0-6.6 5.4-12 12-12h153.7c6.6 0 12 5.4 12 12v39.4c0 6.6-5.4 12-12 12z" class="st53"/>
        <g class="st54">
          <text class="st55 st56 st59 st58" transform="matrix(1.0241 .00085 -.00087 1 3950.217 6018.755)">
            SAFE
          </text>
        </g>
        <path d="M1503.8 6086.1L1393.7 5976c-4.7-4.7-4.7-12.3 0-17l27.9-27.9c4.7-4.7 12.3-4.7 17 0l110.1 110.1c4.7 4.7 4.7 12.3 0 17l-27.9 27.9c-4.7 4.7-12.3 4.7-17 0z" class="st53"/>
        <g class="st54">
          <text class="st55 st56 st57 st58" transform="matrix(.7236 .7248 -.7077 .7065 1403.49 5964.729)">
            WACS
          </text>
        </g>
        <path d="M1407.5 6182.1L1297.4 6072c-4.7-4.7-4.7-12.3 0-17l27.9-27.9c4.7-4.7 12.3-4.7 17 0l110.1 110.1c4.7 4.7 4.7 12.3 0 17l-27.9 27.9c-4.7 4.7-12.3 4.7-17 0z" class="st53"/>
        <g class="st54">
          <text class="st55 st56 st57 st58" transform="matrix(.7236 .7248 -.7077 .7065 1324.204 6077.127)">
            ACE
          </text>
        </g>
      </g>
    </g>
  </g>
  <g id="BG">
    <path id="Africa" d="M25.5 0C11.5 0 0 11.5 0 25.5v753.2c0 14 3.9 26.6 8.7 27.8s29.4 2.3 43.4 2.3h92.7c14 0 34.8-1.9 46-4.2s40.7-24.3 47.1-30.8c6.5-6.5 23.3-11.8 37.3-11.8h104.1c14 0 33.6 8.1 43.5 18l22.4 22.4c9.9 9.9 25.9 23.3 35.5 29.6 9.6 6.4 41.1 11.6 44.3 11.6s5.9 11.5 5.9 25.5V1061c0 14-8.1 33.6-18 43.6l-6.9 6.9c-9.9 9.9-22.8 28.5-28.7 41.2l-6.6 47.4c2.7 13.8 3.8 26.1 2.4 27.4-1.3 1.3-8.7 12-16.5 23.7 0 0-9.1 13.7-9.1 34.6v7.9c1.9 8.4.6 21.3-2.9 28.6-3.5 7.3-14.9 29.3-24.8 30.6l-8.7 3.6c-29.5 12.2-41.1 48.7-41.1 48.7-4.2 13.4-7.7 35.8-7.7 49.8v5.5c0 14 1.9 34.7 4.2 46 2.3 11.3 27.1 43.5 37 53.4l69.2 69.2c9.9 9.9 18 29.5 18 43.6v21.9c0 14 1.9 34.7 4.2 46 2.3 11.3 27.1 43.4 37 53.4l310.9 311c9.9 9.9 18 29.5 18 43.6v27.2c0 14 1.9 34.7 4.2 46 2.3 11.3 23 39.3 27.9 44.2 4.9 4.9 11 17.1 13.6 27.2s26.3 39.9 36.2 49.8l104 104c9.9 9.9 18 29.5 18 43.6v76.7c0 14-8.1 33.6-18 43.5l-4.2 4.2c-9.9 9.9-24.4 27.6-32.1 39.3 0 0-9.1 13.7-9.1 34.6 0 21 9 34.6 9 34.6 7.8 11.7 22.2 29.4 32.1 39.3l53.6 53.6c9.9 9.9 18 29.5 18 43.6v184.2c0 14-8.1 33.6-18 43.6l-115 115.4c-9.9 9.9-23.2 25.9-29.6 35.5-6.4 9.6-11.6 49.9-11.6 63.9V3543c0 14-8.1 33.6-18 43.6l-19.2 19.2c-9.9 9.9-23.2 25.9-29.6 35.5s-11.6 49.9-11.6 63.9v357c0 14 1.9 34.7 4.2 46 2.3 11.3 27.1 43.5 37 53.4l208.7 208.7c9.9 9.9 18 29.5 18 43.6v101c0 14 1.9 34.7 4.2 46 2.3 11.3 27.1 43.5 37 53.4l86.5 86.4c9.9 9.9 18 29.5 18 43.6v173.8c0 14 1.9 34.7 4.2 46 2.3 11.3 27.1 43.5 37 53.4l6.6 6.6c9.9 9.9 18 29.5 18 43.6v144.1c0 14 1.9 34.7 4.2 46 2.3 11.3 27.1 43.5 37 53.4l164.3 164.3c9.9 9.9 18 29.5 18 43.6v54.7c0 14 1.9 34.7 4.2 46 2.3 11.3 27.1 43.5 37 53.4l88.8 88.8c9.9 9.9 18 29.5 18 43.6v44c0 14 1.9 34.7 4.1 46 2.3 11.3 27 43.4 36.9 53.4l42.1 42.2c9.9 9.9 18 20.3 18 23.1s-9.6 11.3-21.4 18.9l-30.6 39.2c-5 13.1-9 34.5-9 47.6 0 13 1.9 33 4.2 44.3 2.3 11.3 27.1 43.5 37 53.4l5.4 5.4c9.9 9.9 14 28.8 9 41.9 0 0-7.4 19.4-.7 41.9 8.2 27.7 36.6 42.9 36.6 42.9 12.4 6.6 30.5 13.8 40.2 15.9 9.8 2.1 20.2 4.3 23.3 4.7 3.1.5 12.7.9 14.6.9 1.9 0 11.5 8.1 21.5 18l39.5 39.5c9.9 9.9 25.9 23.3 35.5 29.6 9.6 6.4 49.9 11.6 63.9 11.6h3.3c14 0 34.7-1.9 46-4.2s41.5-25.1 49-32.7c7.5-7.5 25.2-13.7 39.2-13.7h92.1c14 0 34.8-1.9 46-4.2 11.3-2.3 41.3-24.9 48.6-32.2 7.3-7.3 24.7-13.2 38.7-13.2h143.5c14 0 31.2 5.7 38.1 12.6 6.9 6.9 20.5 17.8 30.1 24.2 9.6 6.4 17.5 11.6 38.4 11.6 21 0 34.6-9 34.6-9 11.7-7.8 27.6-20.5 35.4-28.2s25.6-14.1 39.7-14.1h5.1c14 0 36.4-3.6 49.8-8l32.4-20.9c8.9-10.8 27.7-19.7 41.8-19.7h41.2c14 0 34.7-1.9 46-4.2 11.3-2.3 43.5-27.1 53.4-37L3294 6058c9.9-9.9 29.5-18 43.6-18h38c14 0 34.7-1.9 46-4.2 11.3-2.3 43.5-27.1 53.4-37l440.3-440.2c9.9-9.9 23.3-25.9 29.6-35.5 6.4-9.6 11.6-49.9 11.6-63.9v-255.7c0-14-1.8-34.3-3.9-45.1-2.2-10.8-16.1-34.4-15.2-35.2.9-.9 13-1.6 27.1-1.6h202.6c14 0 34.7-1.9 46-4.2 11.3-2.3 43.5-27.1 53.4-37l22.4-22.4c9.9-9.9 23.2-25.9 29.6-35.5 6.4-9.6 11.6-49.9 11.6-63.9v-488.7c0-14-1.9-34.7-4.2-46-2.3-11.3-27-43.4-36.9-53.2-9.8-9.8-9.8-26 .1-35.9l332.4-332.4c9.9-9.9 29.5-18 43.6-18h105.5c14 0 34.7-1.9 46-4.2s43.5-27.1 53.4-37l290.1-290.1c9.9-9.9 23.2-25.9 29.6-35.5 6.4-9.6 11.6-49.9 11.6-63.9v-527.5c0-14-1.9-34.8-4.2-46-2.3-11.3-27.1-43.5-37-53.4l-81.8-81.7c-9.9-9.9-18-29.5-18-43.5v-383.5c0-14-1.9-34.7-4.2-46-2.3-11.3-27.1-43.5-37-53.4l-73.5-73.5c-9.9-9.9-18-29.5-18-43.6v-54.9c0-14 8.1-33.7 17.9-43.7l181.8-184.8c9.8-10 23-26 29.2-35.5 6.2-9.5 11.3-49.5 11.3-63.6v-10.8c0-14 8.3-33.4 18.5-43l11.4-10.8c10.2-9.6 22.6-22.6 27.5-28.7 4.9-6.1 21.7-24.8 32.6-24.8 10.9 0 29.1-1.9 40.4-4.2s43.5-27.1 53.4-37L6459.7 550.9c9.9-9.9 23.2-25.9 29.6-35.5 6.4-9.6 11.6-49.9 11.6-63.9V204.7c0-14 8.1-33.6 18-43.6l114.6-114.6c9.9-9.9 21.3-22.1 25.2-27.1S6658.3 0 6644.3 0H25.5z" class="st61"/>
    <path id="Overlay" d="M25.2.4C11.2.4-.3 11.9-.3 25.9v637c0 14 6.6 32.1 14.7 40.2s26.2 14.7 40.2 14.7h92.7c14 0 33.6-8.1 43.5-18l10.7-10.7c9.9-9.9 29.5-18 43.5-18h169.6c14 0 33.6 8.1 43.5 18l45.6 45.6c9.9 9.9 29.5 18 43.5 18h2.4c14 0 33.6 8.1 43.6 18l1.4 1.3c9.9 9.9 18 29.5 18 43.5v266.2c0 14-8.1 33.6-18 43.6l-30.1 30.1c-9.9 9.9-9.9 26.2 0 36.1l5.5 5.5c9.9 9.9 9.9 26.2 0 36.1l-22.7 22.7c-9.9 9.9-11.6 24.5-3.7 32.3 7.9 7.9 6.2 22.4-3.7 32.3l-2.2 2.2c-9.9 9.9-18 29.5-18 43.6v59.1c0 14-4.8 30.3-10.6 36.1-5.8 5.8-18.7 2.5-28.6-7.4l-18.2-18.2c-9.9-9.9-18-6.6-18 7.5v5.5c0 14 8.1 33.6 18 43.6l92.3 92.3c9.9 9.9 18 29.5 18 43.6v54.7c0 14 8.1 33.6 18 43.6l334.1 334.1c9.9 9.9 18 29.5 18 43.6v59.9c0 14 8.1 33.6 18 43.6l4.6 4.6c9.9 9.9 18 24.1 18 31.6s8.1 21.7 18 31.6l127.1 127.1c9.9 9.9 18 29.5 18 43.6v142.2c0 14-8.1 33.6-18 43.5l-27.4 27.3c-9.9 9.9-9.9 26.2 0 36.1l76.7 76.7c9.9 9.9 18 29.5 18 43.6v249.6c0 14-8.1 33.6-18 43.6l-138.4 138.4c-9.9 9.9-18 29.5-18 43.6V3564c0 14-8.1 33.6-18 43.6l-42.3 42.3c-9.9 9.9-18 29.5-18 43.6v357c0 14 8.1 33.6 18 43.6l231.8 231.8c9.9 9.9 18 29.5 18 43.6v133.7c0 14 8.1 33.6 18 43.6l109.6 109.6c9.9 9.9 18 29.5 18 43.6v206.6c0 14 8.1 33.6 18 43.6l29.7 29.7c9.9 9.9 18 29.5 18 43.6v176.9c0 14 8.1 33.6 18 43.6l187.4 187.4c9.9 9.9 18 29.5 18 43.6v87.4c0 14 8.1 33.6 18 43.6l111.9 111.9c9.9 9.9 18 29.5 18 43.6v76.7c0 14 8.1 33.6 18 43.6l65.2 65.3c9.9 9.9 18 29.5 18 43.6v68.7c0 14-11.5 25.5-25.5 25.5h-10c-14 0-25.5 10.7-25.5 23.7s8.1 31.8 18 41.8l46.6 46.6c9.9 9.9 18 24.1 18 31.5s-7 20.5-15.6 29c-8.6 8.6-7.6 17.3 2.2 19.4 9.8 2.1 26.6 3.8 37.5 3.8s27.9 8.1 37.8 18l62.6 62.6c9.9 9.9 29.5 18 43.5 18h3.3c14 0 33.6-8.1 43.5-18l14.4-14.4c9.9-9.9 29.5-18 43.5-18h124.8c14 0 33.6-8.1 43.5-18l13.5-13.5c9.9-9.9 29.5-18 43.5-18h208.9c14 0 33.6 8.1 43.5 18l12.3 12.3c9.9 9.9 26.2 9.9 36.1 0l15.3-15.4c9.9-9.9 29.5-18 43.6-18h37.8c14 0 25.5-10.9 25.5-24.2 0-13.3 11.5-24.2 25.5-24.2h114.1c14 0 33.6-8.1 43.6-18l242.3-242.3c9.9-9.9 29.5-18 43.6-18h70.7c14 0 33.6-8.1 43.6-18l271.1-271.1 36.1-36.1 69.3-69.3 36.1-36.1 27.7-27.7c9.9-9.9 18-29.5 18-43.5v-255.7c0-14-10-25.5-22.2-25.5s-22.2-11.5-22.2-25.5v-11.4c0-14 8.1-33.6 18-43.6l36.9-36.9c9.9-9.9 29.5-18 43.6-18h235.3c14 0 33.6-8.1 43.6-18l22.4-22.4c9.9-9.9 18-29.5 18-43.6v-326.6-162c0-14-8.1-33.6-18-43.6l-55.6-55.6c-9.9-9.9-9.9-26.2 0-36.1l37.4-37.4 36.1-36.1L4591 3911c9.9-9.9 29.5-18 43.6-18h138.2c14 0 33.6-8.1 43.6-18l290.1-290.1c9.9-9.9 18-29.5 18-43.6v-527.5c0-14-8.1-33.6-18-43.5l-104.9-104.9c-9.9-9.9-18-29.5-18-43.5v-416.2c0-14-8.1-33.6-18-43.6l-96.7-96.7c-9.9-9.9-18-29.5-18-43.6v-120c0-14 8.1-33.7 17.9-43.7l204.5-207.9c9.8-10 17.9-29.7 17.9-43.7v-44.8c0-14 8.3-33.4 18.5-43l36.1-34.2c10.2-9.6 18.5-29 18.5-43v-6.5c0-14 11.5-25.5 25.5-25.5h64.7c14 0 33.6-8.1 43.6-18l697.4-697.4 36.1-36.1 374.9-374.9c9.9-9.9 18-29.5 18-43.6V160c0-14 8.1-33.6 18-43.6l98-98c9.9-9.9 6.6-18-7.5-18H25.2zm3742.1 2658.3c0 14-11.5 25.5-25.5 25.5h-5.8c-14 0-33.6-8.1-43.5-18l-27.1-27.1c-9.9-9.9-18-29.5-18-43.6V2500c0-14-8.1-33.6-18-43.6L3499.9 2327c-9.9-9.9-18-29.5-18-43.6v-395.6c0-14-.2-31.8-.5-39.6-.3-7.7 9.5-14.1 21.6-14.1s22.1 11.5 22.1 25.5v81.5c0 14 7.4 33 16.6 42.1 9.1 9.1 16.6 28 16.6 42.1v160.9c0 14 8.1 33.6 18 43.6l143.8 143.8c9.9 9.9 18 29.5 18 43.6v100.2c0 14 6.6 32.1 14.6 40.1s14.6 26.1 14.6 40.1v61.1zm542.1 750.5c0 12.6-3.2 26-7.1 29.9-3.9 3.9-15.2-1-25.1-11l-9.7-9.7c-9.9-9.9-18-10-18-.2s-4.1 22-9.2 27c-5 5-15 3.3-22.2-3.8-7.2-7.1-13-24.5-13-38.5v-12.7c0-14 2.7-28.2 6-31.5 3.3-3.3-2.1-14.1-12.1-24l-7.5-7.5c-9.9-9.9-18-29.5-18-43.6v-55.5c0-14-8.1-33.6-18-43.6l-7-7c-9.9-9.9-18-29-18-42.4s8.1-32.5 18-42.4l41.3-41.3c9.9-9.9 18-29.5 18-43.5V2914c0-14-8.1-33.6-18-43.6l-59.3-59.3c-9.9-9.9-9.9-26.2 0-36.1l3.4-3.4 18.4-18.4c.2-.2 8.5 7.7 18.4 17.6l79.4 79.4c9.9 9.9 18 29.5 18 43.6v165.9c0 14-8.1 33.6-18 43.6l-3.3 3.3c-9.9 9.9-18 29.5-18 43.6V3280c0 14 8.1 33.6 18 43.6l44.7 44.7c9.8 9.9 17.9 28.3 17.9 40.9zm-34.2-1990.8c-9.9 9.9-26.2 9.9-36.1 0l-5.9-5.9c-9.9-9.9-25.4-10.7-34.4-1.7s-16.3 27.8-16.3 41.8v49.3c0 14-8.1 33.6-18 43.6l-12.9 12.9c-9.9 9.9-18 29.5-18 43.6v47c0 14-8.1 33.6-18 43.6l-7.1 7.1c-9.9 9.9-29.5 18-43.5 18h-137c-14 0-32.2 6.7-40.4 14.9-8.2 8.2-22.1 7.7-30.9-1.2-8.8-8.8-16.1-27.5-16.1-41.6v-247.7c0-14 .1-25.6.3-25.7.1-.1 8.4-8.3 18.3-18.3l59.1-59.1c9.9-9.9 29.5-18 43.6-18h55.2c14 0 33.6-8.1 43.5-18l5.3-5.3c9.9-9.9 28.1-18 40.5-18s30.6 8.1 40.5 18l42.4 42.4c9.9 9.9 29.5 18 43.5 18h36.2c14 0 30.1 4.6 35.8 10.3s2.2 18.4-7.8 28.3l-21.8 21.7z" class="st62"/>
    <g id="CountryDividers">
      <path d="M3879.7 5283.7h-116.5c-9.4 0-17-7.7-17-17V4864c0-9.4-5.4-22.4-12-29l-21.4-21.4c-6.6-6.6-12-19.7-12-29v-136.3c0-9.4-7.7-17-17-17h-125.9c-9.4 0-22.4-5.4-29-12l-11-11c-6.6-6.6-19.7-12-29-12H3402c-9.4 0-22.4 5.4-29 12l-16.9 16.9c-6.6 6.6-19.7 12-29 12h-21.2c-9.4 0-22.4 5.4-29 12l-116 116c-6.6 6.6-19.7 12-29 12h-2.7c-9.4 0-22.4 5.4-29 12l-20 20c-6.6 6.6-12 19.7-12 29v36c0 9.4-5.4 22.4-12 29l-43.6 43.6c-6.6 6.6-19.7 12-29 12h-54.5c-9.4 0-17 7.7-17 17v51.7c0 9.4-5.4 22.4-12 29l-51.3 51.3c-6.6 6.6-19.7 12-29 12H2666c-9.4 0-22.4-5.4-29-12l-60.4-60.4c-6.6-6.6-19.7-12-29-12h-21.9c-9.4 0-22.4 5.4-29 12l-6.5 6.5c-6.6 6.6-12 19.7-12 29v38.1c0 9.4-5.4 22.4-12 29l-105 105c-6.6 6.6-19.7 12-29 12h-134c-9.4 0-17-7.7-17-17v-35.2c0-9.4 5.4-22.4 12-29l21.4-21.4c6.6-6.6 12-19.7 12-29v-37.5c0-9.4-5.4-22.4-12-29l-93.6-93.6c-6.6-6.6-12-4.4-12 5v486.6c0 9.4-5.4 22.4-12 29l-45.2 45.2c-6.6 6.6-19.7 12-29 12h-160c-9.4 0-22.4-5.4-29-12l-1.5-1.5c-6.6-6.6-19.7-12-29-12h-10.7c-9.4 0-22.4-5.4-29-12l-3-3c-6.6-6.6-12-19.7-12-29v-8.6c0-9.4-5.4-22.4-12-29l-15.7-15.7c-6.6-6.6-17.4-6.6-24.1 0l-50.8 50.8M3016.4 5698.3c-2.2-2 1.4-9 8.1-15.6l123.4-123.1c6.6-6.6 19.7-12 29-12h14.1c9.4 0 22.4-5.4 29-12l20.8-20.8c6.6-6.6 17.4-6.6 24.1 0l102.7 102.7c6.6 6.6 6.6 17.4 0 24.1l-26.6 26.6c-6.6 6.6-12 19.7-12 29v1.1c0 9.4-5.4 22.4-12 29-6.6 6.6-19.7 12-29 12h-50c-9.4 0-22.4 5.4-29 12l-2.9 2.9c-6.6 6.6-12 17.5-12 24.2 0 6.7-5.4 17.6-12 24.2l-18.4 18.4c-6.6 6.6-17.4 6.6-24.1 0l-107.2-107.2c-6.6-6.5-13.8-13.5-16-15.5z" class="st63"/>
      <path d="M3744.3 5155.7h-13.6c-7.5 0-19.1-5.4-25.7-12l-23.7-23.7c-6.6-6.6-17.4-6.6-24.1 0l-77.3 77.3c-6.6 6.6-12 19.7-12 29v35.2c0 9.4 5.4 22.4 12 29l36.9 36.9c6.6 6.6 19.7 12 29 12h83.7c9.4 0 17-7.7 17-17v-38.7M942.9 3875.4h90.4c9.4 0 22.4-5.4 29-12l12.1-12.1c6.6-6.6 19.7-12 29-12h43.4c9.4 0 22.4 5.4 29 12l57.2 57.2c6.6 6.6 17.4 6.6 24.1 0l6.9-6.9c6.6-6.6 19.7-12 29-12h563.4c9.4 0 22.4 5.4 29 12l72.1 72.1c6.6 6.6 19.7 12 29 12H2290c9.4 0 22.4-5.4 29-12l19.5-19.5c6.6-6.6 19.7-12 29-12h203.7c9.4 0 22.4-5.4 29-12l17.1-17.1c6.6-6.6 19.7-12 29-12h131.3c9.4 0 22.4 5.4 29 12l35.4 35.4c6.6 6.6 4.4 12-5 12h-40.9c-9.4 0-22.4 5.4-29 12l-3.1 3.1c-6.6 6.6-19.7 12-29 12h-24c-9.4 0-22.4 5.4-29 12l-56.6 56.6c-6.6 6.6-17.4 6.6-24.1 0l-39.8-39.8c-6.6-6.6-19.7-12-29-12h-138.9c-9.4 0-22.4 5.4-29 12l-6.9 6.9c-6.6 6.6-19.7 12-29 12h-64c-9.4 0-17 7.7-17 17v497.6c0 9.4-7.7 17-17 17h-105.1c-9.4 0-17 7.7-17 17v386M3704.8 4635.2l113.4-113.4c6.6-6.6 12-19.7 12-29v-13.9c0-9.4 5.4-22.4 12-29l1.4-1.4c6.6-6.6 12-19.7 12-29v-24c0-9.4 5.4-22.4 12-29l78.3-78.3c6.6-6.6 7.1-17 1.1-23s-10.9-18.6-10.9-28v-54.7c0-9.4-5.4-22.4-12-29l-15-15c-6.6-6.6-6.6-17.4 0-24.1l37.5-37.5c6.6-6.6 12-19.7 12-29V3831c0-9.4-7.7-17-17-17h-3.9c-9.4 0-17-7.7-17-17v-1.5c0-9.4-7.7-17-17-17h-96.2c-9.4 0-22.4-5.4-29-12l-51.7-51.7c-6.6-6.6-19.7-12-29-12h-86.7c-9.4 0-17-7.7-17-17v-31.1c0-9.4-7.7-17-17-17h-130.5c-9.4 0-22.4 5.4-29 12l-29.2 29.2c-6.6 6.6-12 19.7-12 29v34.6c0 9.4-5.3 22.3-11.8 28.8-6.5 6.5-19.5 11.8-28.8 11.8h-27.6c-9.4 0-22.4 5.4-29 12l-153.3 153.3c-6.6 6.6-19.7 12-29 12h-225.5c-9.4 0-17 7-17 15.5s5.4 20.9 12 27.5l72.5 72.5c6.6 6.6 12 19.7 12 29v75.3c0 9.4 5.4 22.4 12 29l68 68c6.6 6.6 19.7 12 29 12h43.9c9.4 0 22.4 5.4 29 12l48.2 48.2c6.6 6.6 12 19.7 12 29v57.2c0 9.4 5.4 22.4 12 29l39.2 39.2c6.6 6.6 19.7 12 29 12h97.9c9.4 0 17 7.7 17 17v56.6" class="st63"/>
      <path d="M2597.7 3928.2l-200.5-200.5c-6.6-6.6-12-19.7-12-29v-425.9c0-9.4 7.7-17 17-17H2668c9.4 0 11.6-5.4 5-12l-12.3-12.3c-6.6-6.6-6.6-17.4 0-24.1l29.8-29.8c6.6-6.6 6.8-17.3.4-23.7-6.4-6.4-11.6-19.3-11.6-28.7v-161c0-9.4-5.4-11.6-12-5l-3.6 3.6c-6.6 6.6-19.7 12-29 12h-150.8c-9.4 0-22.4 5.4-29 12l-11.6 11.6c-6.6 6.6-12 4.4-12-5v-29.3c0-9.4 5.4-22.4 12-29l5.4-5.4c6.6-6.6 12-19.7 12-29V2842c0-9.4-5.4-22.4-12-29l-48.5-48.5c-6.6-6.6-12-19.7-12-29v-306.7c0-9.4-7.7-17-17-17H2213c-9.4 0-17-7.7-17-17v-12.6c0-9.4-7.7-17-17-17h-123.2c-9.4 0-17 7.7-17 17v38.8c0 9.4-5.4 22.4-12 29l-5.1 5.1c-6.6 6.6-12 19.7-12 29v24.2c0 9.4-7.7 17-17 17H1756c-9.4 0-22.4-5.4-29-12l-82.2-82.2c-6.6-6.6-12-19.7-12-29v-177c0-9.4-7.7-17-17-17h-500.1c-9.4 0-22.3 5.5-28.9 12.2l-11.2 11.5c-6.5 6.7-19.5 12.2-28.9 12.2l-63.4-.2M4266 3064.6h81.8c9.4 0 22.4-5.4 29-12l12.7-12.7c6.6-6.6 17.4-6.6 24.1 0l44.1 44.1c6.6 6.6 19.7 12 29 12h139.8c9.4 0 22.4-5.4 29-12l50.3-50.3c6.6-6.6 19.2-12 28.1-12 8.8 0 21.5 5.4 28.1 12l9.2 9.2c6.6 6.6 17.4 6.6 24.1 0l22.5-22.5c6.6-6.6 19.7-12 29-12h74c9.4 0 22.4-5.4 29-12l91.2-91.2M3594.1 3637.6v-14.9c0-8.2-4.2-19.1-9.3-24.2s-9.3-17-9.3-26.3v-3.7c0-9.4 7.7-17 17-17h38.2c9.4 0 22.4-5.4 29-12l54.2-54.2c6.6-6.6 19.7-12 29-12H3903c9.4 0 22.4-5.4 29-12l48-48c6.6-6.6 17.4-6.6 24.1 0l54.2 54.2c6.6 6.6 19.7 12 29 12h59.9c9.4 0 22.4 5.4 29 12l4.1 4.1c6.6 6.6 12 19.7 12 29v72.4c0 9.4-5.4 22.4-12 29l-51.1 51.1c-6.6 6.6-12 19.7-12 29v.4c0 9.4 5.4 22.4 12 29l123.1 123.1c6.6 6.6 18.4 12 26.1 12 7.8 0 14.1-7.7 14.1-17V3747c0-9.4 7.7-17 17-17h53.7c9.4 0 17-7.7 17-17v-182c0-9.4-5.4-22.4-12-29l-61.8-61.8" class="st63"/>
      <path d="M3647.3 2564.5h-13.1c-7.2 0-18.5 5.4-25.1 12l-4 4c-6.6 6.6-19.7 12-29 12h-148.3c-9.4 0-17 7.7-17 17v17.6c0 9.4-5.4 22.4-12 29l-56 56c-6.6 6.6-6.6 17.4 0 24.1l29.3 29.3c6.6 6.6 12 19.7 12 29v116.7c0 9.4-5.4 22.4-12 29l-46.6 46.6c-6.6 6.6-12 19.7-12 29v17.8c0 9.4 5.4 22.4 12 29l96.1 96.1c6.6 6.6 19.7 12 29 12h12.3c9.4 0 17-6.5 17-14.5s7.7-14.5 17-14.5h10c9.4 0 17 7.7 17 17v156c0 9.4-7.4 17-16.5 17s-16.5-5.7-16.5-12.6c0-6.9-7.7-12.6-17-12.6H3420c-9.4 0-22.4-5.4-29-12l-253.9-253.9c-6.6-6.6-12-4.4-12 5v38.2c0 9.4-7.7 17-17 17h-110.4c-9.4 0-22.4-5.4-29-12l-23.1-23.1c-6.6-6.6-19.7-12-29-12h-17.8c-9.4 0-17-7.7-17-17v-22.5c0-9.4-7.7-17-17-17h-41.4c-9.4 0-22.4 5.4-29 12l-19.1 19.1c-6.6 6.6-19.6 12-28.9 12s-16.9-6.5-16.9-14.5 4.2-18.8 9.4-23.9c5.2-5.2 2.6-12.9-5.7-17.1l-56.7-28.9M4002.4 3411.6l-42.4-42.7c-6.6-6.6-6.6-17.5 0-24.1l16.5-16.5c6.6-6.6 12-19.7 12-29v-44.5c0-9.4 5.4-22.4 12-29l46.6-46.6c6.6-6.6 6.6-17.4 0-24.1l-3.4-3.4c-6.6-6.6-12-19.7-12-29v-126.9c0-9.4 5.4-22.4 12-29l45.4-45.4c6.6-6.6 6.6-17.4 0-24.1l-85.5-85.5c-6.6-6.6-12-19.7-12-29v-27.2c0-9.4-5.4-22.4-12-29l-55.2-55.2c-6.6-6.6-19.7-12-29-12h-126M4178.5 1514.8l251.7 251.7c6.6 6.6 19.7 12 29 12h226.5c9.4 0 17 7.7 17 17v84.2c0 9.4 5.4 22.4 12 29l151.5 151.5M3546.7 2000.5l147-147c6.6-6.6 12-19.7 12-29V1793c0-9.4-7.7-17-17-17h-11c-9.4 0-17-7.7-17-17v-39.7c0-9.4 7.4-17 16.4-17 9 0 16.4-7.7 16.4-17v-82.7c0-9.4-5.4-22.4-12-29l-23-23c-6.6-6.6-12-19.4-12-28.4s7.4-16.4 16.4-16.4 20.3-3.9 25.1-8.7c4.8-4.8 16.4-8.7 25.7-8.7h127.6" class="st63"/>
      <path d="M4144.2 2761.2l-11.4-11.4c-6.3-6.3-19.1-11.4-28.4-11.4h-95.6c-9.4 0-22.4-5.4-29-12l-55.2-55.2c-6.6-6.6-19.7-12-29-12h-128.2M3662.4 1702.3h-76.9c-9.4 0-17 7.7-17 17v23.3c0 9.4-5.4 22.4-12 29l-7.4 7.4c-6.6 6.6-19.7 12-29 12h-71.2" class="st63"/>
      <path d="M3499.1 1850.3v-3.4c0-1.8-5.3-8.8-11.9-15.5l-52.2-53.5c-6.5-6.7-8.9-15.1-5.4-18.7l6.6-6.6s-5.3-5.5-12-12.1l-16.2-16.2c-6.6-6.6-6.6-17.4 0-24.1l33.8-33.8c6.6-6.6 12-19.7 12-29v-6.3c0-9.4 5.4-22.4 12-29l42.5-42.5c6.6-6.6 19.7-12 29-12h45.8c9.4 0 22.4-5.4 29-12l32.3-32.3M3520.5 1547.6v-238.7c0-9.4 5.4-22.4 12-29l226.4-226.4c6.6-6.6 6.6-17.4 0-24.1l-44.2-44.2c-6.6-6.6-12-19.7-12-29v-116c0-9.4-5.4-22.4-12-29l-40.4-40.4c-6.6-6.6-19.7-12-29-12h-16.4c-9.4 0-22.4-5.4-29-12l-65.6-65.6c-6.6-6.6-17.4-6.6-24.1 0l-16.4 16.4c-6.6 6.6-17.4 6.6-24.1 0l-4.1-4.1c-6.6-6.6-19.7-12-29-12h-16.4c-9.4 0-22.4 5.4-29 12l-12.9 12.9c-6.6 6.6-17.4 6.6-24.1 0l-94.9-94.9c-6.6-6.6-19.7-12-29-12h-220.2c-9.4 0-22.4-5.4-29-12l-17.5-17.5c-6.6-6.6-19.7-12-29-12h-1.7c-9.4 0-17 7.7-17 17v18c0 9.4-7.7 17-17 17h-123c-9.4 0-22.4 5.4-29 12l-42.7 42.7c-6.6 6.6-19.7 12-29 12h-44.5c-9.4 0-22.4-5.4-29-12l-21.1-21.1c-6.6-6.6-17.4-6.6-24.1 0l-84.3 84.3c-6.6 6.6-19.7 12-29 12h-121.8c-9.4 0-22.4-5.4-29-12l-22.2-22.2c-6.6-6.6-19.7-12-29-12h-6.4c-9.4 0-22.4-5.4-29-12l-58.8-58.8c-6.6-6.6-19.7-12-29-12h-82.3c-9.4 0-22.4 5.4-29 12l-65.7 65.7c-6.6 6.6-12 19.7-12 29v151.8c0 9.4-5.4 22.4-12 29l-50.6 50.6c-6.6 6.6-12 19.7-12 29v132.7c0 9.4-5.4 22.4-12 29l-25 25c-6.6 6.6-12 19.7-12 29V1427c0 9.4-5.4 22.4-12 29l-223.1 223.1c-6.6 6.6-12 19.7-12 29V1837c0 9.4-5.4 22.4-12 29l-179.2 179.2c-6.6 6.6-19.7 12-29 12h-16.9c-9.4 0-17-7.7-17-17v-47.4c0-9.4-7.7-17-17-17h-50.3c-9.4 0-22.4 5.4-29 12l-52.1 52.1c-6.6 6.6-17.4 6.6-24.1 0l-2.9-2.9c-6.6-6.6-17.4-6.6-24.1 0l-53.3 53.3c-6.6 6.6-12 19.7-12 29v52.5c0 9.4-7.7 17-17 17l-55.2.1" class="st63"/>
      <path d="M1897.6 820.4h-218.4c-9.4 0-22.4 5.4-29 12l-57.6 57.6c-6.6 6.6-12 19.7-12 29v36.6c0 9.4-5.4 22.4-12 29l-32 32c-6.6 6.6-12 19.7-12 29v45.6c0 9.4-5.4 11.6-12 5l-15.1-15.1c-6.6-6.6-19.7-12-29-12h-79.9c-9.4 0-22.4-5.4-29-12l-28.4-28.4c-6.6-6.6-19.7-12-29-12h-160c-9.4 0-22.4 5.4-29 12l-13.4 13.4c-6.6 6.6-12 19.7-12 29v86.5c0 9.4 7.7 17 17 17h17.6c9.4 0 22.4-5.4 29-12l10.6-10.6c6.6-6.6 19.7-12 29-12h40.5c9.4 0 22.4 5.4 29 12l38.6 38.6c6.6 6.6 6.6 17.4 0 24.1l-36.6 36.6c-6.6 6.6-16.9 12-22.8 12s-16.1 5.4-22.8 12l-17.9 17.9c-6.6 6.6-12 18.4-12 26.2s5.4 19.5 12 26.2l92.5 92.5c6.6 6.6 7.1 17 1.1 23s-11 18.6-11 28v122c0 9.4-5.4 22.4-12 29l-6.2 6.2c-6.6 6.6-12 19.7-12 29v4c0 9.4-5.4 22.4-12 29l-1.8 1.8c-6.6 6.6-19.6 12-28.8 12s-16.8-7.7-16.8-17v-36.7c0-9.4-5.4-11.6-12-5l-35.4 35.4c-6.6 6.6-19.3 12-28.1 12s-21.5-5.4-28.1-12L1019 1630c-6.6-6.6-17.4-6.6-24.1 0l-6.7 6.7c-6.6 6.6-7.4 16.6-1.8 22.3 5.6 5.6 10.2 17.3 10.2 25.8 0 8.6-7.7 15.6-17 15.6H887c-9.4 0-17 7.7-17 17v36.2c0 9.4 5.4 22.4 12 29l.3.3c6.6 6.6 7 17.1.8 23.2-6.2 6.2-5.8 16.6.8 23.2l19.8 19.8c6.6 6.6 12 18.8 12 27.1s-7.7 15.1-17 15.1h-6c-9.4 0-22.4-5.4-29-12l-4.2-4.2c-6.6-6.6-17.4-6.6-24.1 0l-48.2 48.2M1125 1016.8H844.1c-9.4 0-17 7.7-17 17V1190c0 9.4-7.7 17-17 17H580.4M827.1 1032.5H612.6M4157.5 1323.5l130.8-130.8c6.6-6.6 12-19.7 12-29V960.4c0-9.4-5.4-22.4-12-29l-50.1-50.1c-6.6-6.6-12-19.7-12-29v-22.8c0-9.4-5.4-22.4-12-29l-47.6-47.6c-6.6-6.6-17.4-6.6-24.1 0l-31.6 31.6c-6.6 6.6-19.7 12-29 12h-137.7c-9.4 0-22.4 5.4-29 12l-11.2 11.2c-6.6 6.6-17.4 6.6-24.1 0l-21-21c-6.6-6.6-17.4-6.6-24.1 0l-4.4 4.4c-6.6 6.6-17.4 6.6-24.1 0l-1.9-1.9c-6.6-6.6-19.7-12-29-12h-23.6c-9.4 0-22.4 5.4-29 12l-18.2 18.2" class="st63"/>
      <path d="M5288.7 1600.7l-88-88c-6.6-6.6-12-19.7-12-29V906c0-9.4 5.4-22.4 12-29l103.8-103.8c6.6-6.6 4.4-12-5-12h-77.8c-9.4 0-22.4-5.4-29-12l-29.4-29.4c-6.6-6.6-17.4-6.6-24.1 0l-132.6 132.6c-6.6 6.6-17.4 6.6-24.1 0l-27.8-27.8c-6.6-6.6-19.7-12-29-12h-134c-9.4 0-22.4-5.4-29-12L4662 699.9c-6.6-6.6-19.7-12-29-12h-145.1c-9.4 0-21.6-4.6-27.2-10.2-5.6-5.6-17.8-10.2-27.2-10.2h-188.4c-9.4 0-22.4 5.4-29.1 12l-72.2 71.8M5314 763.6l69.6-69.6c6.6-6.6 19.7-12 29-12h52.4c9.4 0 22.4-5.4 29-12l50.2-50.2c6.6-6.6 19.7-12 29-12h163.1c9.4 0 22.4-5.4 29-12l446.3-446.3c6.6-6.6 4.4-12-5-12H5881c-9.4 0-22.4-5.4-29-12l-57.7-57.7c-6.6-6.6-19.7-12-29-12h-81.7c-9.4 0-23.8-3.6-32-8 0 0-8.1-4.3-11.6-18.7-3.4-14.1-3-29-3-29M2650.1.6l-12.5 12.5c-6.6 6.6-12 19.7-12 29v8c0 9.4 7.7 17 17 17h57.6c9.4 0 17 7.7 17 17v33.3c0 9.4 7.7 17 17 17h61.6c9.4 0 22.4 5.4 29 12l52.1 52.1c6.6 6.6 6.6 17.4 0 24.1l-3 3c-6.6 6.6-6.6 17.4 0 24.1l349.7 349.7M4450.3 667.2l-26.1-26.1c-6.6-6.6-12-19.7-12-29v-37.8c0-9.4-7.7-17-17-17h-30c-9.4 0-22.4-5.4-29-12l-70.3-70.3c-6.6-6.6-12-19.7-12-29v-45.2c0-9.4-5.4-22.4-12-29L4047.1 177c-6.6-6.6-12-19.7-12-29v-15c0-9.4 7.7-17 17-17h101.8c9.4 0 24.7-.4 34-.9 0 0 75.3-3.9 75.3-59.5 0-13.9-5-37.5-12.5-55.6M2205 .6l-7.2 7.2c-3.9 3.9-14.9 7.2-24.2 7.2h-217.7c-9.4 0-11.6 5.4-5 12l28.3 28.3c6.6 6.6 6.6 17.4 0 24.1l-70.5 70.5c-6.6 6.6-19.7 12-29 12h-164.5c-9.4 0-22.4 5.4-29 12l-42.4 42.4c-6.6 6.6-17.4 6.6-24.1 0l-15.8-15.8c-6.6-6.6-17.4-6.6-24.1 0l-8.1 8.1c-6.6 6.6-19.7 12-29 12h-67.5c-9.4 0-22.4 5.4-29 12l-137 137c-6.6 6.6-12 19.7-12 29v157.5c0 9.4 5.4 22.4 12 29l4.5 4.5c6.6 6.6 12 19.7 12 29v40.6c0 9.4 5.4 22.4 12 29l54.3 54.3c6.6 6.6 12 19.7 12 29v12.7c0 9.4 5.4 22.4 12 29L1575.8 973M1059.6.4v52.4c0 9.4-5.4 22.4-12 29L920.3 209.1c-6.6 6.6-12 19.7-12 29V306c0 9.4-5.4 22.4-12 29l-47 47c-6.6 6.6-19.7 12-29 12h-12c-9.4 0-22.4-5.4-29-12l-56.8-56.8c-6.6-6.6-12-4.9-12 3.8s-7.7 15.9-17 15.9h-10.2c-9.4 0-17-7.7-17-17v-3.5c0-9.4-5.4-11.6-12-5L493.7 479.9c-6.6 6.6-12 19.7-12 29v72.3c0 9.4-5.4 22.4-12 29L408.9 671M1460.4 223L1237.8.4" class="st63"/>
    </g>
    <g id="Islands">
      <path d="M5506.1 5086.5c-9.7 0-19-3.9-25.9-10.7L5346.4 4942c-6.9-6.9-10.7-16.2-10.7-25.9v-187.4l-27.1-27.1c-6.9-6.9-10.7-16.2-10.7-25.9v-208c0-9.7 3.9-19 10.7-25.9l140.1-140.1V4197l-61.4-61.4c-6.9-6.9-10.7-16.2-10.7-25.9v-190.4c0-9.7 3.9-19 10.7-25.9l53.7-53.7v-82.4c0-9.7 3.9-19 10.7-25.9l50.8-50.8c6.9-6.9 16.2-10.7 25.9-10.7h215.3l141.9-141.9v-93.5c0-20.2 16.4-36.6 36.6-36.6h70.5l46-46V3265c0-9.7 3.9-19 10.7-25.9l72-72c7.2-7.1 16.5-10.7 25.9-10.7s18.7 3.6 25.9 10.7l117.3 117.3c6.9 6.9 10.7 16.2 10.7 25.9V3574l58.8 58.8c6.9 6.9 10.7 16.2 10.7 25.9s-3.9 19-10.7 25.9l-72.5 72.5c-7.2 7.1-16.5 10.7-25.9 10.7s-18.7-3.6-25.9-10.7l-19.1-19.1v29.6l31.4 31.4c6.9 6.9 10.7 16.2 10.7 25.9v128.8c0 9.7-3.9 19-10.7 25.9l-86.9 86.9v196c0 9.7-3.9 19-10.7 25.9l-119.1 119.1v242c0 9.7-3.9 19-10.7 25.9l-75.1 75.1v142.4c0 9.7-3.9 19-10.7 25.9l-94 94c-6.9 6.9-16.2 10.7-25.9 10.7h-55.4l-52.2 52.2c-6.9 6.9-16.2 10.7-25.9 10.7h-175.3z" class="st64"/>
      <path d="M6147.2 3192.9l117.3 117.3v279l69.6 69.6-72.5 72.5-51.8-51.8H6180v103.4l42.1 42.1v128.8l-97.6 97.6v211.2l-129.8 129.8v257.1l-85.8 85.9V4893l-94 94h-70.6l-62.9 62.9h-175.1l-133.8-133.8v-202.6l-37.8-37.8v-208l150.8-150.8v-135l-72.2-72.2v-190.4l64.5-64.5v-97.5l50.8-50.8H5759l163.4-163.4v-108.7h85.6l67.4-67.4v-102.1l71.8-72m0-73.2c-18.7 0-37.5 7.1-51.8 21.4l-72 72c-13.7 13.7-21.5 32.4-21.5 51.8v71.7l-24.5 24.5h-55.3c-40.4 0-73.2 32.8-73.2 73.2v78.4l-120.5 120.5h-200.1c-19.4 0-38.1 7.7-51.8 21.4l-50.8 50.8c-13.7 13.7-21.5 32.4-21.5 51.8v67.2l-43 43c-13.7 13.7-21.4 32.4-21.4 51.8v190.4c0 19.4 7.7 38.1 21.4 51.8l50.7 50.7v74.3l-129.3 129.3c-13.7 13.7-21.5 32.4-21.5 51.8v208c0 19.4 7.7 38.1 21.5 51.8l16.4 16.4v172.2c0 19.4 7.7 38.1 21.4 51.8l133.8 133.8c13.7 13.7 32.4 21.5 51.8 21.5h175.1c19.4 0 38.1-7.7 51.8-21.5l41.5-41.5h40.2c19.4 0 38.1-7.7 51.8-21.5l94-94c13.7-13.7 21.4-32.4 21.4-51.8v-127.2l64.4-64.4c13.7-13.7 21.4-32.4 21.4-51.8v-226.8l108.4-108.4c13.7-13.7 21.4-32.4 21.4-51.8v-180.9l76.1-76.1c13.7-13.7 21.4-32.4 21.4-51.8V3825c0-9.1-1.7-18.1-4.9-26.4 8.5-3.6 16.3-8.9 22.9-15.5l72.5-72.5c13.7-13.7 21.5-32.4 21.5-51.8s-7.7-38.1-21.5-51.8l-48.1-48.1v-248.6c0-19.4-7.7-38.1-21.5-51.8L6199 3141.1c-14.3-14.3-33.1-21.4-51.8-21.4z" class="st62"/>
      <path d="M6264.5 3589.2l69.5 69.5-72.5 72.6-51.8-51.8h-29.8v103.4l42.1 42.1v128.8l-97.6 97.6v211.2l-129.8 129.8v257.1l-85.9 85.9v157.5l-94 94h-70.5l-63 63h-175.1l-133.8-133.8v-202.6l-37.8-37.8v-208.1l150.8-150.8v-135l-72.2-72.1v-190.5l64.5-64.4v-97.6l50.8-50.8h230.4l163.4-163.3v-108.7h85.6l67.4-67.4v-102.1l72-72 117.3 117.3z" class="st62"/>
      <g>
        <path d="M6696 4364.8c-9.1 0-16.4-7.3-16.4-16.4v-58.2c0-4.4 1.7-8.5 4.8-11.6l30.6-30.6v-13.9c0-4.4 1.7-8.5 4.8-11.6l22-22c3.2-3.2 7.4-4.8 11.6-4.8s8.4 1.6 11.6 4.8l46.5 46.5c3.1 3.1 4.8 7.2 4.8 11.5l.1 21.6c0 4-1.4 7.8-4 10.8l-16.1 18.6v22.5c0 4.4-1.7 8.5-4.8 11.6l-16.3 16.3c-3.1 3.1-7.3 4.8-11.6 4.8H6696z" class="st64"/>
        <path d="M6753.4 4212.2l46.5 46.5.1 21.6-20.1 23.2v28.7l-16.3 16.3H6696v-58.2l35.4-35.4v-20.7l22-22m0-32.8c-8.7 0-17.1 3.5-23.2 9.6l-22 22c-6.2 6.2-9.6 14.5-9.6 23.2v7.1l-25.8 25.8c-6.2 6.2-9.6 14.5-9.6 23.2v58.2c0 18.1 14.7 32.8 32.8 32.8h67.6c8.7 0 17.1-3.5 23.2-9.6l16.3-16.3c6.2-6.2 9.6-14.5 9.6-23.2v-16.4l12.1-14c5.2-6 8-13.7 8-21.7l-.1-21.6c0-8.6-3.5-16.9-9.6-23l-46.5-46.5c-6.1-6.2-14.5-9.6-23.2-9.6z" class="st62"/>
        <path d="M6800 4280.2l-20.1 23.3v28.6l-16.2 16.3H6696v-58.2l35.5-35.4v-20.7l21.9-21.9 46.5 46.5z" class="st62"/>
      </g>
      <g>
        <path d="M6691.9 1969l10.4 10.4v24.5l24.8 24.8v38.8l6.3 6.3v8.2h-14.1l-22.4-22.4v-8.3l-37.7-37.7v-12l9.1-9.1h14.7V1969h8.9m0-27.4h-8.9c-14.8 0-26.9 11.8-27.4 26.5-2.4 1.3-4.7 2.9-6.7 4.9l-9.1 9.1c-5.1 5.1-8 12.1-8 19.4v12c0 7.3 2.9 14.2 8 19.4l29.9 29.9c.7 6.1 3.5 11.8 7.8 16.2l22.4 22.4c5.1 5.1 12.1 8 19.4 8h14.1c15.1 0 27.4-12.3 27.4-27.4v-8.2c0-6.4-2.2-12.6-6.3-17.5v-27.6c0-7.3-2.9-14.2-8-19.4l-16.8-16.8v-13.2c0-7.3-2.9-14.2-8-19.4l-10.4-10.4c-5.1-5-12.1-7.9-19.4-7.9z" class="st62"/>
        <path d="M6697 2051.3v8.3l22.4 22.4h14v-8.2l-6.3-6.4v-38.7l-24.8-24.8v-24.6l-10.4-10.3h-8.8v23.4h-14.7l-9.1 9.1v12.1z" class="st62"/>
      </g>
    </g>
    <g id="Lakes">
      <path d="M4228.6 3124.7l39.4-39.4v-217l-115.5-115.4-.7.7-39.5 39.5 95.5 95.4v144.9l-77.4 77.4v48.7l43 43.1v106.5l43.6 43.6-11.9 12v63.7l26 26 18.3-18.3v-35.7l45.8 45.8 14.2-14.2v-45.7l-80.8-80.8zM3738.1 2391.6l-179.9-179.9v-211.9l-33.1-33.2v-132.4h-44.2l.9 28.1v446.6l165.5 165.5V2621l63.2 63.3h56.8v-112.2l-29.2-29.2zM4207.2 1358l-78.4-78.5h-44.9l-41.4 41.4h-106.2l-95.2 95.2-.5.5v298.7l32.1 32.1 29.7-29.8h187.9l43.2-43.2v-98l49-49v-100.3l32.6-32.7 42 42 57.9-57.9-20.5-20.5z" class="st61"/>
    </g>
    <g id="Country_names">
      <text class="st65 st56 st66 st67" transform="translate(4416.605 2683.647)">
        TANZANIA
      </text>
      <text class="st65 st56 st66 st67" transform="translate(4505.872 3439.893)">
        MOZAMBIQUE
      </text>
      <text class="st65 st56 st66 st67" transform="translate(2666.555 3515.99)">
        ZAMBIA
      </text>
      <text class="st65 st56 st66 st67" transform="translate(2234.656 4663.413)">
        BOTSWANA
      </text>
      <text class="st65 st56 st66 st67" transform="translate(3023.651 5728.486)">
        LESOTHO
      </text>
      <text class="st65 st56 st66 st67" transform="translate(4138.94 3565.293)">
        MALAWI
      </text>
      <text class="st65 st56 st66 st67" transform="translate(2229.966 1820.223)">
        DEM. REP. OF CONGO
      </text>
      <text class="st65 st56 st66 st67" transform="translate(1339.59 1584.358)">
        CONGO
      </text>
      <text class="st65 st56 st66 st67" transform="translate(3962.26 969.793)">
        UGANDA
      </text>
      <text class="st65 st56 st66 st67" transform="translate(4695.479 1153.875)">
        KENYA
      </text>
      <text class="st65 st56 st66 st67" transform="translate(5311.935 1106.677)">
        SOMALIA
      </text>
      <text class="st65 st56 st66 st67" transform="translate(766.726 674.83)">
        CAMEROON
      </text>
      <text class="st65 st56 st66 st67" transform="translate(1679.389 434.35)">
        CENTRAL AFRICAN REPUBLIC
      </text>
      <text class="st65 st56 st66 st67" transform="translate(3549.395 539.193)">
        SOUTH SUDAN
      </text>
      <text class="st65 st56 st66 st67" transform="translate(4811.358 469.123)">
        ETHIOPIA
      </text>
      <text class="st65 st56 st66 st67" transform="translate(666.234 1591.904)">
        GABON
      </text>
      <text class="st65 st56 st66 st67" transform="translate(3089.96 1666.663)">
        RWANDA
      </text>
      <text class="st65 st56 st66 st67" transform="translate(3117.41 1949.808)">
        BURUNDI
      </text>
      <text class="st65 st56 st66 st67" transform="translate(2197.22 5372.995)">
        SOUTH AFRICA
      </text>
      <text class="st65 st56 st66" transform="matrix(.9538 0 0 1 3572.274 5287.756)">
        SWAZILAND
      </text>
      <text class="st65 st56 st66 st67" transform="translate(5546.811 4019.832)">
        MADAGASCAR
      </text>
      <text class="st68 st56 st66 st67" transform="translate(6472.426 4462.582)">
        MAURITIUS
      </text>
      <text class="st68 st56 st66 st67" transform="translate(6414.904 1889.858)">
        SEYCHELLES
      </text>
      <text class="st65 st56 st66 st67" transform="translate(3153.68 4054.868)">
        ZIMBABWE
      </text>
      <text class="st65 st56 st66 st67" transform="translate(1616.018 3227.283)">
        ANGOLA
      </text>
    </g>
    <g id="LandPoints">
      <path d="M576.2 1301.8c0 13.3-10.8 24.1-24.1 24.1s-24.1-10.8-24.1-24.1 10.8-24.1 24.1-24.1 24.1 10.8 24.1 24.1zM1169.4 2565.2c0 13.3-10.8 24.1-24.1 24.1s-24.1-10.8-24.1-24.1 10.8-24.1 24.1-24.1c13.3-.1 24.1 10.7 24.1 24.1zM612.5 777.9c0 13.3-10.8 24.1-24.1 24.1s-24.1-10.8-24.1-24.1 10.8-24.1 24.1-24.1 24.1 10.8 24.1 24.1zM1374.4 4696.1c0 13.3-10.8 24.1-24.1 24.1s-24.1-10.8-24.1-24.1 10.8-24.1 24.1-24.1 24.1 10.8 24.1 24.1zM1145.4 2651.4c0 13.3-10.8 24.1-24.1 24.1s-24.1-10.8-24.1-24.1 10.8-24.1 24.1-24.1c13.4 0 24.1 10.8 24.1 24.1zM895.7 2020.5c0 13.3-10.8 24.1-24.1 24.1s-24.1-10.8-24.1-24.1 10.8-24.1 24.1-24.1 24.1 10.8 24.1 24.1zM3857.2 5135.8c0 13.3-10.8 24.1-24.1 24.1s-24.1-10.8-24.1-24.1 10.8-24.1 24.1-24.1c13.4 0 24.1 10.7 24.1 24.1zM6747.9 4258.7c1.2 14.9-11.1 27.2-26 26-11.7-.9-21.2-10.4-22.1-22.1-1.2-14.9 11.1-27.2 26-26 11.7.9 21.2 10.4 22.1 22.1zM6705.2 2040.8c0 13.3-10.8 24.1-24.1 24.1s-24.1-10.8-24.1-24.1 10.8-24.1 24.1-24.1c13.3-.1 24.1 10.7 24.1 24.1zM990.7 2219.5c0 13.3-10.8 24.1-24.1 24.1s-24.1-10.8-24.1-24.1 10.8-24.1 24.1-24.1 24.1 10.8 24.1 24.1zM1880.7 6167c0 13.3-10.8 24.2-24.1 24.2-13.4 0-24.1-10.8-24.1-24.2 0-13.3 10.8-24.1 24.1-24.1 13.3-.1 24.1 10.8 24.1 24.1M3660.6 5722.5c0 13.3-10.8 24.1-24.1 24.1s-24.2-10.8-24.2-24.1 10.8-24.2 24.2-24.2c13.3.1 24.1 10.9 24.1 24.2"/>
      <path d="M3857.2 5135.8c0 13.3-10.8 24.1-24.1 24.1s-24.1-10.8-24.1-24.1 10.8-24.1 24.1-24.1c13.4 0 24.1 10.7 24.1 24.1z"/>
    </g>
  </g>
  <g id="NewLandPoints">
    <path d="M4984.3 2382.1c0 13.3-10.8 24.1-24.1 24.1s-24.1-10.8-24.1-24.1 10.8-24.1 24.1-24.1 24.1 10.8 24.1 24.1zM4993 1987c0 13.3-10.8 24.1-24.1 24.1s-24.1-10.8-24.1-24.1 10.8-24.1 24.1-24.1 24.1 10.8 24.1 24.1z"/>
  </g>
  <g id="Locations_1_">
    <text id="Capital_names_23_" class="st65 st69 st70 st58" transform="matrix(1.0241 0 0 1 1182.887 2586.372)">
      Cacuaco
    </text>
    <text id="Capital_names_12_" class="st65 st69 st70 st58" transform="matrix(1.0241 0 0 1 1364.698 4658.126)">
      Walvis Bay
    </text>
    <text id="Capital_names_11_" class="st65 st69 st70 st58" transform="matrix(1.0241 0 0 1 1158.966 2672.601)">
      Luanda
    </text>
    <text id="Capital_names_9_" class="st65 st69 st70 st58" transform="matrix(1.0241 0 0 1 865 1984.501)">
      Pointe Noire
    </text>
    <text class="st65 st69 st71 st58" transform="matrix(1.0241 0 0 1 1181.715 1847.138)">
      Brazzaville
    </text>
    <text class="st65 st69 st71 st58" transform="matrix(1.0241 0 0 1 2726.396 3149.053)">
      Solwezi
    </text>
    <text class="st65 st69 st71 st58" transform="matrix(1.0241 0 0 1 2745.86 3854.117)">
      Livingstone
    </text>
    <text class="st65 st69 st71 st58" transform="matrix(1.0241 0 0 1 2457.35 3906.936)">
      Sesheke
    </text>
    <text class="st65 st69 st71 st58" transform="matrix(1.0241 0 0 1 1622.98 1904.515)">
      Kinshasa
    </text>
    <text class="st65 st69 st71 st58" transform="matrix(1.0241 0 0 1 2593.313 3998.365)">
      Kasane
    </text>
    <text id="Capital_names_8_" class="st65 st69 st70 st58" transform="matrix(1.0241 0 0 1 1334.192 2192.485)">
      Inga
    </text>
    <text id="Capital_names_7_" class="st65 st69 st70 st58" transform="matrix(1.0241 0 0 1 2478.524 2216.534)">
      Kananga
    </text>
    <text id="Capital_names_6_" class="st65 st69 st70 st58" transform="matrix(1.0241 0 0 1 1968.248 2103.492)">
      Kikwit
    </text>
    <text id="Capital_names_4_" class="st65 st69 st70 st58" transform="matrix(1.0241 0 0 1 1001.229 2235.55)">
      Muanda
    </text>
    <text id="Capital_names_3_" class="st65 st69 st70 st58" transform="matrix(1.0241 0 0 1 2688.912 2426.912)">
      Mwene-Ditu
    </text>
    <text class="st65 st69 st71 st58" transform="matrix(1.0241 0 0 1 1811.352 4768.736)">
      Windhoek
    </text>
    <text class="st65 st69 st71 st58" transform="matrix(1.0241 0 0 1 1842.426 6136.262)">
      Yzerfontein
    </text>
    <text class="st65 st69 st72 st58" transform="matrix(1.0241 .00085 -.00087 1 2415.263 6244.512)">
      Port Elizabeth
    </text>
    <text class="st65 st69 st72 st58" transform="matrix(1.0241 .00085 -.00087 1 2295.223 6029.969)">
      Beaufort West
    </text>
    <text class="st65 st69 st72 st58" transform="matrix(1.0241 .00085 -.00087 1 3310.11 5815.21)">
      Durban
    </text>
    <text class="st65 st69 st72 st58" transform="matrix(1.0241 .00085 -.00087 1 1961.658 6338.595)">
      CAPE TOWN
    </text>
    <text class="st65 st69 st72 st58" transform="matrix(1.0241 .00085 -.00087 1 3124.974 5638.218)">
      MASERU
    </text>
    <text class="st65 st69 st72 st58" transform="matrix(1.0241 .00085 -.00087 1 2411.277 5484.44)">
      Kimberley
    </text>
    <text transform="matrix(1.0241 .00085 -.00087 1 3442.145 5563.217)">
      <tspan x="0" y="0" class="st65 st69 st72 st58">Richards</tspan> <tspan x="127.3" y="59.1" class="st65 st69 st72 st58">Bay</tspan>
    </text>
    <text class="st65 st69 st72 st58" transform="matrix(1.0241 .00085 -.00087 1 3394.076 5711.576)">
      Mtunzini
    </text>
    <text class="st65 st69 st72 st58" transform="matrix(1.0241 .00085 -.00087 1 2892.666 5525.629)">
      Bloemfontein
    </text>
    <text id="Province_capitals_names_1_" class="st65 st69 st71 st58" transform="matrix(1.0241 0 0 1 3035.428 4291.66)">
      Bulawayo
    </text>
    <text class="st65 st69 st71 st58" transform="matrix(1.0241 0 0 1 2967.035 4371.659)">
      Plumtree
    </text>
    <text class="st65 st69 st72 st58" transform="matrix(1.0241 .00085 -.00087 1 2718.607 4095.765)">
      Victoria Falls
    </text>
    <text class="st65 st69 st71 st58" transform="matrix(1.0241 0 0 1 2539.1 4821.112)">
      Molepolole
    </text>
    <text class="st65 st69 st71 st58" transform="matrix(1.0241 0 0 1 2528.1 4930.112)">
      Thamaga
    </text>
    <text class="st65 st69 st71 st58" transform="matrix(1.0241 0 0 1 2509.099 5028.112)">
      Kanye
    </text>
    <text class="st65 st69 st71 st58" transform="matrix(1.0241 0 0 1 2648.1 5108.112)">
      Lobatse
    </text>
    <text font-size="49.254" class="st65 st69 st58" transform="matrix(1.024 0 -.00104 1 2767.826 4462.582)">
      Francistown
    </text>
    <text class="st65 st69 st71 st58" transform="matrix(1.0241 0 0 1 2866.714 5135.288)">
      Johannesburg
    </text>
    <text class="st65 st69 st72 st58" transform="matrix(1.0241 .00085 -.00087 1 3027.137 3623.948)">
      LUSAKA
    </text>
    <text class="st65 st69 st71 st58" transform="matrix(1.0241 0 0 1 3227.704 3021.946)">
      Lubumbashi
    </text>
    <text class="st65 st69 st71 st58" transform="matrix(1.0241 0 0 1 3366.78 3371.695)">
      Ndola
    </text>
    <text class="st65 st69 st71 st58" transform="matrix(1.0241 0 0 1 3382.107 3272.838)">
      Kitwe
    </text>
    <text class="st65 st69 st71 st58" transform="matrix(1.0241 0 0 1 3311.09 3186.54)">
      Chingola
    </text>
    <text class="st65 st69 st72 st58" transform="matrix(1.0241 .00085 -.00087 1 3182.132 3832.87)">
      Kariba
    </text>
    <text class="st65 st69 st71 st58" transform="matrix(1.0241 0 0 1 3248.902 3100.077)">
      Chililabombwe
    </text>
    <text class="st65 st69 st71 st58" transform="matrix(1.0241 0 0 1 3659.155 3862.328)">
      Bindura
    </text>
    <text class="st65 st69 st71 st58" transform="matrix(1.0241 0 0 1 3980.78 4185.328)">
      Mutare
    </text>
    <text class="st65 st69 st71 st58" transform="matrix(1.0241 0 0 1 3612.808 4765.736)">
      Tzaneen
    </text>
    <text class="st65 st69 st71 st58" transform="matrix(1.0241 0 0 1 3569.274 4640.619)">
      Beitbridge
    </text>
    <text class="st65 st69 st72 st58" transform="matrix(1.0241 .00085 -.00087 1 3430.925 3706.885)">
      Chirundu
    </text>
    <text class="st65 st69 st71 st58" transform="matrix(1.0241 0 0 1 4001.644 3882.242)">
      Nyamapanda
    </text>
    <text class="st65 st69 st72 st58" transform="matrix(1.0241 .00085 -.00087 1 3726.075 4068.643)">
      HARARE
    </text>
    <text class="st65 st69 st71 st58" transform="matrix(1.0241 0 0 1 3742.749 4366.596)">
      Masvingo
    </text>
    <text class="st65 st69 st71 st58" transform="matrix(1.0241 0 0 1 3406.894 5135.288)">
      Pretoria
    </text>
    <text class="st65 st69 st71 st58" transform="matrix(1.0241 0 0 1 2774.1 4716.112)">
      Serowe
    </text>
    <text class="st65 st69 st72 st58" transform="matrix(1.0241 .00085 -.00087 1 2962.034 4968.06)">
      GABORONE
    </text>
    <text class="st65 st69 st71 st58" transform="matrix(1.0241 0 0 1 3564.894 4886.248)">
      Polokwane
    </text>
    <text class="st65 st69 st72 st58" transform="matrix(1.0241 .00085 -.00087 1 3725.978 4068.489)">
      HARARE
    </text>
    <text class="st65 st69 st71 st58" transform="matrix(1.0241 0 0 1 3300.41 4157.412)">
      Gweru
    </text>
    <text class="st65 st69 st71 st58" transform="matrix(1.0241 0 0 1 3742.653 4366.442)">
      Masvingo
    </text>
    <text class="st65 st69 st71 st58" transform="matrix(1.0241 0 0 1 3167.1 4699.112)">
      Morupule
    </text>
    <text class="st65 st69 st71 st58" transform="matrix(1.0241 0 0 1 3170.336 4600.86)">
      Phokoje
    </text>
    <text class="st65 st69 st71 st58" transform="matrix(1.0241 0 0 1 3398.737 4414.412)">
      Zvishavane
    </text>
    <text class="st65 st69 st59 st58" transform="matrix(1.0241 .00085 -.00087 1 3817.737 5087.596)">
      MAPUTO
    </text>
    <text class="st65 st69 st72 st58" transform="matrix(1.0241 .00085 -.00087 1 4266.915 2537.75)">
      Iringa
    </text>
    <text class="st65 st69 st72 st58" transform="matrix(1.0241 .00085 -.00087 1 4607.908 2344.959)">
      Morogoro
    </text>
    <text class="st65 st69 st72 st58" transform="matrix(1.0241 .00085 -.00087 1 3966.72 2632.1)">
      Tunduma
    </text>
    <text class="st65 st69 st72 st58" transform="matrix(1.0241 .00085 -.00087 1 4522.7 2479.81)">
      DAR ES SALAAM
    </text>
    <text class="st65 st69 st71 st58" transform="matrix(1.0241 0 0 1 4815.25 3649.525)">
      Nacala
    </text>
    <text class="st65 st69 st72 st58" transform="matrix(1.0241 .00085 -.00087 1 4522.7 2480.163)">
      DAR ES SALAAM
    </text>
    <text class="st65 st69 st72 st58" transform="matrix(1.0241 .00085 -.00087 1 3851.72 1964.747)">
      Shinyanga
    </text>
    <text class="st65 st69 st72 st58" transform="matrix(1.0241 .00085 -.00087 1 4106.686 2151.249)">
      Singida
    </text>
    <text id="Capital_names_24_" class="st65 st69 st70 st58" transform="matrix(1.0241 0 0 1 589.738 1323.051)">
      Libreville
    </text>
    <text id="Capital_names_13_" class="st65 st69 st70 st58" transform="matrix(1.0241 0 0 1 632.114 792.301)">
      Douala
    </text>
    <text class="st65 st69 st72 st58" transform="matrix(1.0241 .00085 -.00087 1 4667.174 1987.727)">
      Mombasa
    </text>
    <text class="st65 st69 st72 st58" transform="matrix(1.0241 .00085 -.00087 1 3640.539 1652.452)">
      KIGALI
    </text>
    <text class="st65 st69 st72 st58" transform="matrix(1.0241 .00085 -.00087 1 3602.194 1589.672)">
      Gatuna
    </text>
    <text class="st65 st69 st72 st58" transform="matrix(1.0241 .00085 -.00087 1 3667.26 1259.437)">
      KAMPALA
    </text>
    <text class="st65 st69 st72 st58" transform="matrix(1.0241 .00085 -.00087 1 3989.813 1227.498)">
      Tororo
    </text>
    <text class="st65 st69 st72 st58" transform="matrix(1.0241 .00085 -.00087 1 4303.061 1554.979)">
      NAIROBI
    </text>
    <text class="st65 st69 st72 st58" transform="matrix(1.0241 .00085 -.00087 1 4195.957 1215.147)">
      Bungoma
    </text>
    <text class="st65 st69 st72 st58" transform="matrix(1.0241 .00085 -.00087 1 4704.492 1566.527)">
      Thika
    </text>
    <text class="st65 st69 st72 st58" transform="matrix(1.0241 .00085 -.00087 1 4748.654 1370.213)">
      Meru
    </text>
    <text class="st65 st69 st72 st58" transform="matrix(1.0241 .00085 -.00087 1 4213.102 1471.24)">
      Kisumu
    </text>
    <text class="st65 st69 st72 st58" transform="matrix(1.0241 .00085 -.00087 1 4423.913 1296.53)">
      Eldoret
    </text>
    <text class="st65 st69 st72 st58" transform="matrix(1.0241 .00085 -.00087 1 4324.857 1827.706)">
      Namanga
    </text>
    <text class="st65 st69 st72 st58" transform="matrix(1.0241 .00085 -.00087 1 4822.25 1491.825)">
      Garissa
    </text>
    <text class="st65 st69 st72 st58" transform="matrix(1.0241 .00085 -.00087 1 5124.915 1345.514)">
      Liboi
    </text>
    <text class="st65 st69 st72 st58" transform="matrix(1.0241 .00085 -.00087 1 3405.992 1860.527)">
      Bujumbura
    </text>
    <text class="st65 st69 st72 st58" transform="matrix(1.0241 .00085 -.00087 1 3374.16 1429.221)">
      Mbarara
    </text>
    <text class="st65 st69 st72 st58" transform="matrix(1.0241 .00085 -.00087 1 5143.931 1585.332)">
      Lamu
    </text>
    <text class="st65 st69 st72 st58" transform="matrix(1.0241 .00085 -.00087 1 4242.584 1659.603)">
      Isibania
    </text>
    <text class="st65 st69 st72 st58" transform="matrix(1.0241 .00085 -.00087 1 4855.86 1808.637)">
      Malindi
    </text>
    <text class="st65 st69 st72 st58" transform="matrix(1.0241 .00085 -.00087 1 4073.498 1796.94)">
      Mwanza
    </text>
    <text class="st65 st69 st72 st58" transform="matrix(1.0241 .00085 -.00087 1 4702.736 2165.718)">
      Tanga
    </text>
    <text class="st65 st69 st72 st58" transform="matrix(1.0241 .00085 -.00087 1 4624.14 1864.203)">
      Moshi
    </text>
    <text class="st65 st69 st72 st58" transform="matrix(1.0241 .00085 -.00087 1 4382.9 1945.059)">
      Arusha
    </text>
    <text class="st65 st69 st72 st58" transform="matrix(1.0241 .00085 -.00087 1 3254.56 1511.508)">
      Goma
    </text>
    <text class="st65 st69 st72 st58" transform="matrix(1.0241 .00085 -.00087 1 3154.528 1757.514)">
      Bukavu
    </text>
    <text class="st65 st69 st72 st58" transform="matrix(1.0241 .00085 -.00087 1 3415.162 1784.692)">
      Rusizi
    </text>
    <text class="st65 st69 st72 st58" transform="matrix(1.0241 .00085 -.00087 1 3638.146 1102.498)">
      Masindi
    </text>
    <text class="st65 st69 st72 st58" transform="matrix(1.0241 .00085 -.00087 1 3703.48 1001.831)">
      Karuma
    </text>
    <text class="st65 st69 st72 st58" transform="matrix(1.0241 .00085 -.00087 1 3659.813 838.831)">
      Numule
    </text>
    <text class="st65 st69 st72 st58" transform="matrix(1.0241 .00085 -.00087 1 4173.146 1108.831)">
      Mbale
    </text>
    <text class="st65 st69 st72 st58" transform="matrix(1.0241 .00085 -.00087 1 3594.75 1761.984)">
      Rusumo
    </text>
    <text class="st65 st69 st72 st58" transform="matrix(1.0241 .00085 -.00087 1 3697.351 1384.28)">
      Masaka
    </text>
    <text class="st65 st69 st72 st58" transform="matrix(1.0241 .00085 -.00087 1 3677.182 1526.984)">
      Kagitumba
    </text>
    <text class="st65 st69 st72 st58" transform="matrix(1.0241 .00085 -.00087 1 4514.795 1421.508)">
      Nakuru
    </text>
    <text class="st65 st69 st72 st58" transform="matrix(1.0241 .00085 -.00087 1 4054.258 1376.46)">
      Busia
    </text>
    <text class="st65 st69 st71 st58" transform="matrix(1.0241 0 0 1 2440.1 4201.112)">
      Maun
    </text>
    <text class="st65 st69 st71 st58" transform="matrix(1.0241 0 0 1 2634.115 2932.31)">
      Kolwezi
    </text>
  </g>
  <g id="Sealines-l-tel" class="st52">
    <g id="L-Tel_2_" class="st54">
      <g id="L-Tel">
        <path d="M5376 2043.1h-50" class="st74"/>
        <path fill="none" stroke="#e6007e" stroke-dasharray="93.4481,23.362" stroke-linecap="round" stroke-linejoin="round" stroke-width="9" d="M5302.6 2043.1h-221.9"/>
        <path d="M5069 2043.1h-50l-35.3-35.2M5379.5 2416.9h-50" class="st74"/>
        <path fill="none" stroke="#e6007e" stroke-dasharray="106.4938,26.6234" stroke-linecap="round" stroke-linejoin="round" stroke-width="9" d="M5302.8 2416.9h-252.9"/>
        <path d="M5036.6 2416.9h-50" class="st74"/>
        <g>
          <path d="M6941.2 90.8v50" class="st74"/>
          <path fill="none" stroke="#e6007e" stroke-dasharray="93.3776,23.3444" stroke-linecap="round" stroke-linejoin="round" stroke-width="9" d="M6941.2 164.2v221.7"/>
          <path d="M6941.2 397.6v50l-35.4 35.3" class="st74"/>
          <path fill="none" stroke="#e6007e" stroke-dasharray="98.0293,24.5073" stroke-linecap="round" stroke-linejoin="round" stroke-width="9" d="M6888.5 500.3l-1465 1463.6"/>
          <path d="M5414.8 1972.6l-35.4 35.3.1 50" class="st74"/>
          <path fill="none" stroke="#e6007e" stroke-dasharray="103.7465,25.9366" stroke-linecap="round" stroke-linejoin="round" stroke-width="9" d="M5379.6 2083.8l2.4 1543.3"/>
          <path d="M5382 3640l.1 50-35.3 35.4" class="st74"/>
          <path fill="none" stroke="#e6007e" stroke-dasharray="100.7933,25.1983" stroke-linecap="round" stroke-linejoin="round" stroke-width="9" d="M5329 3743.3l-829.1 831.5v935.1l-278.5 284.2"/>
          <path d="M4212.5 5803.1l-35 35.7-50 .1" class="st74"/>
          <path fill="none" stroke="#e6007e" stroke-dasharray="102.2019,25.5505" stroke-linecap="round" stroke-linejoin="round" stroke-width="9" d="M4102 5838.9l-370.5.6"/>
          <path d="M3718.7 5839.5l-50 .1-35.3-35.3M3631.9 5802.8l-35.4-35.4" class="st74"/>
          <path d="M6928.1 99.7l13.1-48.8 13.1 48.8z" class="st60"/>
        </g>
        <g>
          <path d="M4498.5 5209.6h-50" class="st74"/>
          <path fill="none" stroke="#e6007e" stroke-dasharray="110.6804,27.6701" stroke-linecap="round" stroke-linejoin="round" stroke-width="9" d="M4420.8 5209.6h-539.5"/>
          <path d="M3868.5 5207.1l-35.4-35.4" class="st74"/>
        </g>
        <g>
          <path d="M5382 3672.6h-50" class="st74"/>
          <path fill="none" stroke="#e6007e" stroke-dasharray="91.8419,22.9605" stroke-linecap="round" stroke-linejoin="round" stroke-width="9" d="M5309.1 3672.6H5091"/>
          <path d="M5079.5 3672.6h-50" class="st74"/>
        </g>
      </g>
      <g id="L-Tel_1_">
        <path d="M4489.7 5565.3l-225.3 225.3c-4.7 4.7-12.3 4.7-17 0l-27.9-27.9c-4.7-4.7-4.7-12.3 0-17l225.3-225.3c4.7-4.7 12.3-4.7 17 0l27.9 27.9c4.7 4.7 4.7 12.3 0 17z" class="st60"/>
        <path d="M4241.2 5743.4l20.2 20.3 12.4-12.4 4.6 4.6-18 18-24.8-24.9 5.6-5.6zM4264.2 5720.4l24.8 24.9-5.6 5.6-24.8-24.9 5.6-5.6zM4312.4 5720.2c-.7 2.6-2.3 5.2-4.7 7.6-2 1.9-4 3.4-6.3 4.3-2.2.9-4.4 1.3-6.7 1.2-2.2-.1-4.4-.6-6.5-1.6-2.1-1-4.1-2.4-5.9-4.2-1.9-1.9-3.3-3.9-4.3-6-1-2.2-1.6-4.4-1.7-6.6-.1-2.3.3-4.5 1.2-6.7.9-2.2 2.3-4.3 4.3-6.3s4.1-3.4 6.3-4.3c2.2-.9 4.5-1.2 6.7-1.1 2.3.1 4.5.7 6.6 1.7 2.2 1 4.2 2.5 6 4.3 1.8 1.8 3.2 3.8 4.2 5.9 1 2.1 1.5 4.3 1.6 6.6l6-.3v5.2l-6.8.3zm-6.5-4.9c-.2-1.1-.5-2.3-1.2-3.5-.6-1.2-1.6-2.5-2.9-3.8-1.1-1.1-2.3-2-3.5-2.8-1.3-.8-2.6-1.3-3.9-1.5-1.3-.3-2.7-.2-4.1.2-1.4.4-2.7 1.2-3.9 2.5-1.3 1.3-2.1 2.6-2.5 3.9s-.5 2.7-.2 4c.3 1.3.8 2.7 1.5 3.9.8 1.3 1.7 2.4 2.8 3.5 1 1 2.2 1.9 3.4 2.7 1.2.7 2.5 1.2 3.9 1.5 1.3.2 2.7.2 4-.2s2.7-1.2 3.9-2.5c.6-.6 1-1.1 1.3-1.4.3-.4.5-.7.6-1.1l-4.5.3-.1-5.3 5.4-.4zM4342.1 5688.5c-.3 3.6-2.1 7-5.5 10.4-3.5 3.4-6.9 5.3-10.4 5.6-3.5.3-7-1.3-10.4-4.7l-15.4-15.5 5.6-5.6 15.4 15.5c.7.7 1.4 1.3 2.2 1.8.8.5 1.6.9 2.5 1s1.8 0 2.8-.4c1-.4 2.1-1.1 3.2-2.3 2-2 2.9-3.8 2.8-5.4-.1-1.6-1.1-3.4-2.9-5.2l-15.4-15.5 5.6-5.6 15.4 15.5c3.3 3.4 4.8 6.9 4.5 10.4zM4334.3 5650.5l24.8 24.9-5.6 5.6-24.8-24.9 5.6-5.6zM4352 5632.8c1.6-1.6 3.4-2.9 5.4-3.8 1.9-.9 3.9-1.4 6-1.4s4.1.5 6.3 1.4c2.1 1 4.2 2.5 6.3 4.5 1.8 1.8 3.2 3.7 4.3 5.7s1.7 4.1 1.8 6.1c.2 2.1-.2 4.2-1 6.2-.8 2.1-2.2 4.1-4.1 6l-11 11-24.8-24.9 10.8-10.8zm19.8 20.7c.8-.8 1.5-1.7 2-2.7.5-1 .8-2.1.8-3.3 0-1.2-.3-2.4-.9-3.7-.6-1.3-1.6-2.6-2.9-4-1.3-1.3-2.5-2.3-3.8-3-1.3-.8-2.5-1.2-3.8-1.4-1.3-.1-2.6.1-3.9.6-1.3.6-2.7 1.5-4.1 2.9l-4 4 15.7 15.7 4.9-5.1zM4403.9 5618.4c.9.3 1.8.3 2.6.2.9-.2 1.7-.5 2.6-1 .9-.5 1.7-1.1 2.4-1.9.5-.5 1-1.1 1.5-1.7.5-.7.9-1.3 1.1-2.1.3-.7.4-1.5.3-2.2-.1-.7-.4-1.4-1-2-.7-.7-1.4-1-2.3-1s-1.8.2-2.8.7-2 1-3.2 1.7c-1.1.7-2.3 1.4-3.4 2-1.2.7-2.4 1.4-3.6 1.9-1.2.6-2.5.9-3.7 1.1-1.2.2-2.5.1-3.7-.3s-2.4-1.1-3.6-2.3c-1.3-1.3-2.1-2.7-2.5-4.2-.4-1.5-.4-3-.2-4.5.3-1.5.8-3 1.7-4.5.8-1.4 1.8-2.7 3-3.9 1.3-1.3 2.8-2.5 4.3-3.4 1.5-.9 3.1-1.5 4.7-1.8 1.6-.3 3.2-.2 4.8.2 1.6.5 3.1 1.4 4.5 2.8l-5.4 5.4c-.8-.7-1.6-1.2-2.3-1.4-.8-.2-1.5-.2-2.2-.1-.7.2-1.4.5-2.1 1-.7.5-1.4 1-2.1 1.7-.5.5-.9 1-1.2 1.5-.4.5-.6 1.1-.7 1.7-.1.6-.2 1.2 0 1.8.1.6.4 1.1 1 1.7.5.5 1 .8 1.5.9.5.1 1.1 0 2-.3.8-.3 1.8-.8 3.1-1.5 1.2-.7 2.9-1.7 4.8-2.9.6-.4 1.4-.9 2.5-1.5s2.3-1 3.7-1.3c1.4-.3 2.8-.3 4.3 0s2.9 1.1 4.3 2.5c1.1 1.1 2 2.4 2.5 3.8s.7 2.9.5 4.5c-.2 1.6-.7 3.3-1.7 5-.9 1.7-2.3 3.4-4 5.2-1.4 1.4-2.9 2.6-4.6 3.6-1.7 1-3.4 1.6-5.1 1.9-1.7.3-3.4.2-5.2-.3s-3.3-1.6-4.8-3.1l5.4-5.4c.6.9 1.4 1.5 2.3 1.8zM4424.9 5560l4.6 4.6-13.5 13.4 5.3 5.3 12.3-12.3 4.2 4.3-12.3 12.3 6.1 6.1 13.7-13.7 4.6 4.6-19.3 19.3-24.8-24.9 19.1-19zM4443.5 5541.4l34.4 15.4-5.8 5.8-7.5-3.6-9.5 9.5 3.5 7.5-5.6 5.6-15.2-34.5 5.7-5.7zm15.5 15l-12.3-5.9-.1.1 5.8 12.4 6.6-6.6z" class="st55"/>
      </g>
    </g>
    <path fill="#fff" d="M5053.6 3670.5c0 13.3-10.8 24.1-24.1 24.1s-24.1-10.8-24.1-24.1 10.8-24.1 24.1-24.1 24.1 10.8 24.1 24.1z"/>
  </g>
  <g id="Cables" class="st52">
    <image width="17910" height="23101" overflow="visible" transform="matrix(.24 0 0 .24 926.779 785.767)" xlink:href="8D44E83E5945A26C.png"/>
    <g class="st54">
      <path d="M3365.8 5099l347.2 347.1v200M3562 5230.5h-64.7M1299.2 2162.7l-21.3 21.3-52.6-52.6-55.4 55.4H1070l-35.6 35.7h-68.1M2900.6 2908.2l-59.9-54.9v-235.2l-410-415h-132.8l-50.9-50.9h-262.9l-158.9-158.8h-356.7l-165.4 165.4M4585.2 1611.6l355.9 355.8h39.3M4178.3 1254h141.2l148.4 148.5 115.2 115.2v259.5M3985.6 2706.8l-190.9-191V2416L3624 2245.4v-263.1l92-91.9v-116.2l-28.6-28.5v-39.1" class="st85"/>
      <path d="M4948.3 2379.4h-220l-147.1 147.1h-131.1l-127.7 127.7h-293.7l-285.3 285.3v250.1l-400.9 401M3158.2 3006.1l-97.9-97.9h-159.8M3956 1264.4v-72l-84.7-84.7v-35.3l57-57H4052l126.5 126.5v106.5M4588.9 1566.5l19.5 19.5v11.7l371.6 371.7M4583.1 1777.2v124.1h65.4v74.7l128 128h67.6M4776.6 2109.1v94l169.6 169.6" class="st85"/>
      <path d="M4049.8 1745.7v68.7l98.6 98.6v107.5l28.7 28.7h88.1l61.9 61.9v128.7l72.7 72.8v164.2l52.8 52.7" class="st85"/>
      <path d="M4325.1 2112.7l211.7-211.7h46.3M4473.1 1407.2l79-79h130.7l26.4 26.3v78.1l-130.7 130.7M4655.6 1486.6h51.7l56.8-56.7h236.2l87.5 87.4v326.9M5009.6 1418.9l38-38h137.9M3572.3 1650.2l-34 34.1v100.4M5155.9 1624.2l-68.7 68.6M3687.3 1706.7l135.7 135.8h90.5l101.8-101.8h83.6l150.5-150.5M3538.3 1791.1v109.5h73.6l39.7-39.6v-46l-70.6-70.5v-88M3640.5 1426.9l-63.2 63.3v54.3M4319.9 1291.7l-7.6-7.6h-230.9l-43.8 43.8h-43M3431.7 1715.6l73.3-73.3v-57.1h-15l-35-35M3912.4 1303.1h-70.1L3738.4 1407h-82l-8.9 8.9M3669 1700.9h-85.6" class="st85"/>
      <path d="M3911.1 1330.3h-58.3l-103.9 103.9h-99.4M3528 1594.8l44.3-44.4M3542.2 1613.8l27.8 27.7h-65M3577 1644l30.1 30.1h47.6l32.6 32.6M3966.2 1302.1h61.8l48.1-48.1h102.2" class="st85"/>
      <path d="M3580.4 1645.8l67.1-67.1v-141.1M3542.2 1613.8l-28.5-28.6h-8.7M3926.7 1012.4v-58.7l-39-39v-89.3M4278.7 1252.4v104.4l53.1 53.1h134.9M4551.6 1523.5l-231.7-231.8M4249.4 1590.2l11.8-11.7v-75.6l41.7-41.7v-39.8M3437.6 1711.2h-85.5M3318.3 3286v324.6M3315.2 3617.8l27.5-27.5v-238.5M3668.6 3976.1l-285-284.9M2953.1 3176.7l79.8 79.8H3312M3030.4 3884l273.4-273.4M3312.3 3610.6v132.1l25.5 25.5M3342.1 4302.6l-317.4-317.3M3353.5 3783.8l193.3 193.3h150.8M3705.8 4435.5l202.5-202.5v-64M3010.2 3891.3h-300M2817.5 3967.6l76.3-76.4" class="st85"/>
      <path d="M3342.7 3351.8v-79.9l-160.5-160.5v-80.9M3305 3610.5h80.3v81.5M3385.8 3689.1l-71.9-71.9M3690 3975.6v-74.2h106.7l-75.4 75.4M3334.3 4310.5l7.8-7.9 326.5-326.5 1.1 1M3711.9 3976.9h-7.2v457.5" class="st85"/>
      <path d="M3960.6 3862.3l-114.9 115H3706" class="st85"/>
      <path d="M3693 3976.5h28l187.6 187.6M3529.5 4118.5h108.6v-109.1M3515.6 4822.1l-10.2-10.2v-177.5l14.9-14.9M3529.5 4611.8v-121.4L3342 4302.8M3529.5 4611.8l176.3-176.3" class="st85"/>
      <path d="M3342.5 5062.1v-268.4l176.9-176.9M3544.2 4614.9l10.3 10.3v180.3l-11.9 11.9" class="st85"/>
      <path d="M3529.4 4635.7v260.9l-188.9 192-.2 12.1-55.9 55.9M3554.5 4732.8l97.8 97.8h12.7l38.9 38.9v118.4l-53.8 53.8M3498.8 4157.4v153.1l38.8 38.8h161.7" class="st85"/>
      <path d="M3267.3 5146.1l75.3-75.2-.4-23.7 163.2-163.4V4852l11.6-11.6M3528 4830.6h72.9l25.3-25.4M3640.5 4806.8h34.8l50.7 50.7v141.2l-43.1 43.2M3538.9 4842.4l13.9 13.8v49.1l-182.3 182.3H3349" class="st85"/>
      <path d="M3342.5 5087.4h134.1l46.6-44.1h213.3l101.8 101.8M3232.2 4366.1h46.9l59.3-59.2M3329.8 5079.1h-300.6l-218.5-218.4M3139.2 4709.1v-256.8M2912 4954.2l240.9-241M2893.9 4936.5l233.2-233.2M3141.1 4452.3l87.1-87M3146.6 4706.3h-146.5" class="st85"/>
      <path d="M3148.9 5170h-222.3l-56.2-54.4 93.7-93.6M2896.1 4948.4H2788l-93.5 93.5H2829l81.5-81.5M2886 5097.3l-55.5-55.5M2919.3 5060.3l-19.1-19.1h-59.5M3076.3 5624.5l141.4-141.4v-252.6M3566.8 5794.4L3267.4 5495v-340M2905.7 5575.7l142.4-142.5v-66.1l196.8-196.8" class="st85"/>
      <path d="M2933.9 5579.7l135.5-135.5v-65.5l197.8-197.7M2691.9 5528.5l358.4-358.3h193.4" class="st85"/>
      <path d="M2912.3 5561.7v-93.8l294.8-294.7M2707.2 5548.5h69.1l49.9 49.8h63.2l19.4-19.4M1920.2 6262.1h77.3l174.1-178.1h285.8l344.3-344.3v-61.3l79.6-79.6" class="st85"/>
      <path d="M2906.6 5580.5h148.6l44.9 34.9M2716 5525.6h73.9l49.3 49.3h64.7M2827.7 6290.2v-602.8l97.2-97.2" class="st85"/>
      <path d="M2905.7 5603.3H3054.3l21.6 21.6M2454.8 6058v-272.8l217.3-217.2M1921.6 6240.6h58.8l179.1-179.1h284.4M2827.7 6136.3H3090M1776.3 4706.9v502.7l471.2 464.6 146.5-150.5h309.3" class="st85"/>
      <path d="M1918.1 6279.7v-244.1l488.3-488.3h286.3M1919.5 6285l906.1-1.1M1869 6167h41.6" class="st85"/>
      <path d="M1856.6 6167l37.6 37.6v34.8h27.4M1299.2 2162.7l-21.3 21.3-52.6-52.6-55.4 55.4H1070l-35.6 35.7h-68.1M1559.9 1892.7v98.2M5102.6 1844.2l-115.2 117.5M5084.6 1826.3l-115.1 117.4M3141.3 4718.4l-527.6-527.7" class="st85"/>
      <path fill="none" stroke="#e6007e" stroke-linejoin="round" stroke-width="11" d="M1559.9 1892.7v98.2"/>
      <path d="M2823.5 6278.6l42.8-42.8h128.8l282-281.9h130.5l192.6-192.7M3606.8 5767.8l107.8-107.7M3581.9 5765.5l107.7-107.8M3024.7 3985.3v-92.7M4273.8 1350.5h-58.1l-38.1-38M3577 1547.2v96.8" class="st85"/>
    </g>
  </g>
  <g id="Markers" class="st52">
    <g id="Points" class="st54">
      <path d="M3593.4 5230.5c0 13.3-10.8 24.1-24.1 24.1s-24.2-10.8-24.2-24.1 10.8-24.2 24.2-24.2c13.3 0 24.1 10.8 24.1 24.2M1515.4 1834.1c0 13.3-10.8 24.2-24.2 24.2-13.3 0-24.1-10.8-24.1-24.2 0-13.3 10.8-24.1 24.1-24.1 13.4-.1 24.2 10.8 24.2 24.1M3766.2 3901.4c0 13.3-10.8 24.1-24.2 24.1-13.3 0-24.1-10.8-24.1-24.1s10.8-24.2 24.1-24.2c13.4 0 24.2 10.8 24.2 24.2M3553.5 4611.6c0 13.3-10.8 24.1-24.1 24.1s-24.2-10.8-24.2-24.1 10.8-24.2 24.2-24.2c13.3 0 24.1 10.8 24.1 24.2M3554.1 4830.2c0 13.3-10.8 24.1-24.1 24.1s-24.2-10.8-24.2-24.1 10.8-24.2 24.2-24.2c13.3.1 24.1 10.9 24.1 24.2" class="st55"/>
      <path d="M3553.5 4611.6c0 13.3-10.8 24.1-24.1 24.1s-24.2-10.8-24.2-24.1 10.8-24.2 24.2-24.2c13.3 0 24.1 10.8 24.1 24.2M3354.3 3352.1c0 13.3-10.8 24.1-24.1 24.1s-24.2-10.8-24.2-24.1 10.8-24.1 24.2-24.1c13.3 0 24.1 10.8 24.1 24.1M3409.8 3692c0 13.3-10.8 24.1-24.1 24.1s-24.1-10.8-24.1-24.1c0-13.4 10.8-24.1 24.1-24.1 13.3-.1 24.1 10.7 24.1 24.1M3366.8 3769.8c0 13.3-10.8 24.1-24.1 24.1s-24.2-10.8-24.2-24.1c0-13.4 10.8-24.2 24.2-24.2 13.3.1 24.1 10.9 24.1 24.2" class="st55"/>
      <path d="M3409.8 3692c0 13.3-10.8 24.1-24.1 24.1s-24.1-10.8-24.1-24.1c0-13.4 10.8-24.1 24.1-24.1 13.3-.1 24.1 10.7 24.1 24.1M3553.7 4611.8c0 13.3-10.8 24.1-24.1 24.1s-24.2-10.8-24.2-24.1 10.8-24.2 24.2-24.2c13.3.1 24.1 10.9 24.1 24.2M3984.7 3862.3c0 13.3-10.8 24.1-24.1 24.1s-24.2-10.8-24.2-24.1 10.8-24.2 24.2-24.2c13.3.1 24.1 10.9 24.1 24.2M1801.1 4704.8c0 13.3-10.8 24.2-24.2 24.2-13.3 0-24.1-10.8-24.1-24.2 0-13.3 10.8-24.1 24.1-24.1 13.4-.1 24.2 10.7 24.2 24.1M2976.4 3177.6c0 13.3-10.8 24.1-24.1 24.1s-24.1-10.8-24.1-24.1 10.8-24.1 24.1-24.1 24.1 10.8 24.1 24.1M3109.9 5616.9c0 13.3-10.8 24.2-24.1 24.2-13.4 0-24.1-10.8-24.1-24.2 0-13.3 10.8-24.1 24.1-24.1 13.3-.1 24.1 10.8 24.1 24.1M3601.1 1547.2c0 13.4-10.8 24.1-24.2 24.1-13.3 0-24.1-10.8-24.1-24.1s10.8-24.1 24.1-24.1c13.4-.1 24.2 10.8 24.2 24.1M4302.1 1253.4c0 13.3-10.8 24.2-24.1 24.2s-24.2-10.8-24.2-24.2c0-13.3 10.8-24.1 24.2-24.1 13.3-.1 24.1 10.8 24.1 24.1M4733.3 1354.5c0 13.3-10.8 24.1-24.1 24.1s-24.2-10.8-24.2-24.1c0-13.4 10.8-24.2 24.2-24.2 13.3.1 24.1 10.9 24.1 24.2M5024.5 1430.1c0 13.3-10.8 24.1-24.2 24.1-13.3 0-24.1-10.8-24.1-24.1s10.8-24.2 24.1-24.2c13.4 0 24.2 10.8 24.2 24.2M5209.9 1380.9c0 13.3-10.8 24.1-24.2 24.1-13.3 0-24.1-10.8-24.1-24.1s10.8-24.2 24.1-24.2c13.4.1 24.2 10.9 24.2 24.2M3711.3 1702.1c0 13.3-10.8 24.1-24.2 24.1-13.3 0-24.1-10.8-24.1-24.1s10.8-24.1 24.1-24.1c13.4-.1 24.2 10.7 24.2 24.1M3566.1 1893.9c0 13.4-10.8 24.1-24.2 24.1-13.3 0-24.1-10.8-24.1-24.1s10.8-24.1 24.1-24.1c13.4 0 24.2 10.8 24.2 24.1M4207.6 1317.2c0 13.3-10.8 24.2-24.1 24.2s-24.2-10.8-24.2-24.2c0-13.3 10.8-24.1 24.2-24.1 13.3 0 24.1 10.8 24.1 24.1" class="st55"/>
      <path d="M3553.7 4611.8c0 13.3-10.8 24.1-24.1 24.1s-24.2-10.8-24.2-24.1 10.8-24.2 24.2-24.2c13.3.1 24.1 10.9 24.1 24.2M4607.2 1777.2c0 13.3-10.8 24.1-24.2 24.1-13.3 0-24.1-10.8-24.1-24.1s10.8-24.1 24.1-24.1c13.4 0 24.2 10.8 24.2 24.1M4271.9 1588.5c0 13.3-10.8 24.1-24.2 24.1-13.3 0-24.1-10.8-24.1-24.1s10.8-24.1 24.1-24.1c13.4 0 24.2 10.8 24.2 24.1M3366.8 3769.8c0 13.3-10.8 24.1-24.1 24.1s-24.2-10.8-24.2-24.1c0-13.4 10.8-24.2 24.2-24.2 13.3.1 24.1 10.9 24.1 24.2M4005.6 2701.1c0 13.3-10.8 24.1-24.2 24.1-13.3 0-24.1-10.8-24.1-24.1s10.8-24.1 24.1-24.1c13.4 0 24.2 10.8 24.2 24.1M4173.6 1953c0 13.3-10.8 24.1-24.2 24.1-13.3 0-24.1-10.8-24.1-24.1s10.8-24.1 24.1-24.1c13.4 0 24.2 10.7 24.2 24.1M4351.6 2107.8c0 13.3-10.8 24.1-24.2 24.1-13.3 0-24.1-10.8-24.1-24.1s10.8-24.1 24.1-24.1c13.4-.1 24.2 10.7 24.2 24.1M4473.1 2526.6c0 13.3-10.8 24.1-24.2 24.1-13.3 0-24.1-10.8-24.1-24.1s10.8-24.1 24.1-24.1 24.2 10.7 24.2 24.1M4606.2 1899.3c0 13.3-10.8 24.1-24.2 24.1-13.3 0-24.1-10.8-24.1-24.1s10.8-24.1 24.1-24.1c13.4-.1 24.2 10.7 24.2 24.1M4671.5 1901.7c0 13.3-10.8 24.1-24.2 24.1-13.3 0-24.1-10.8-24.1-24.1s10.8-24.1 24.1-24.1c13.4 0 24.2 10.7 24.2 24.1M4072.7 1741.2c0 13.3-10.8 24.1-24.2 24.1-13.3 0-24.1-10.8-24.1-24.1s10.8-24.1 24.1-24.1c13.4-.1 24.2 10.7 24.2 24.1" class="st55"/>
      <path d="M4607.2 1777.2c0 13.3-10.8 24.1-24.2 24.1-13.3 0-24.1-10.8-24.1-24.1s10.8-24.1 24.1-24.1c13.4 0 24.2 10.8 24.2 24.1M4271.9 1588.5c0 13.3-10.8 24.1-24.2 24.1-13.3 0-24.1-10.8-24.1-24.1s10.8-24.1 24.1-24.1c13.4 0 24.2 10.8 24.2 24.1M3711.9 1702.1c0 13.3-10.8 24.1-24.2 24.1-13.3 0-24.1-10.8-24.1-24.1s10.8-24.1 24.1-24.1c13.4 0 24.2 10.7 24.2 24.1M3048.9 3892.6c0 13.3-10.8 24.2-24.1 24.2s-24.2-10.8-24.2-24.2c0-13.3 10.8-24.1 24.2-24.1 13.2 0 24.1 10.8 24.1 24.1M2734.3 3891.3c0 13.3-10.8 24.2-24.1 24.2s-24.2-10.8-24.2-24.2c0-13.3 10.8-24.1 24.2-24.1 13.3 0 24.1 10.8 24.1 24.1M3385.9 1710.1c0 13.4-10.8 24.1-24.2 24.1-13.3 0-24.1-10.8-24.1-24.1s10.8-24.1 24.1-24.1c13.4 0 24.2 10.8 24.2 24.1M3457.3 1710.5c0 13.3-10.8 24.1-24.2 24.1-13.3 0-24.1-10.8-24.1-24.1s10.8-24.1 24.1-24.1c13.4 0 24.2 10.8 24.2 24.1M3601.1 1547.2c0 13.4-10.8 24.1-24.2 24.1-13.3 0-24.1-10.8-24.1-24.1s10.8-24.1 24.1-24.1c13.4-.1 24.2 10.8 24.2 24.1M3554.1 4830.2c0 13.3-10.8 24.1-24.1 24.1s-24.2-10.8-24.2-24.1 10.8-24.2 24.2-24.2c13.3.1 24.1 10.9 24.1 24.2M3553.7 4611.8c0 13.3-10.8 24.1-24.1 24.1s-24.2-10.8-24.2-24.1 10.8-24.2 24.2-24.2c13.3.1 24.1 10.9 24.1 24.2" class="st55"/>
      <path d="M3554.1 4830.2c0 13.3-10.8 24.1-24.1 24.1s-24.2-10.8-24.2-24.1 10.8-24.2 24.2-24.2c13.3.1 24.1 10.9 24.1 24.2M3553.5 4611.6c0 13.3-10.8 24.1-24.1 24.1s-24.2-10.8-24.2-24.1 10.8-24.2 24.2-24.2c13.3 0 24.1 10.8 24.1 24.2M3109.9 5616.9c0 13.3-10.8 24.2-24.1 24.2-13.4 0-24.1-10.8-24.1-24.2 0-13.3 10.8-24.1 24.1-24.1 13.3-.1 24.1 10.8 24.1 24.1M3385.9 1710.1c0 13.4-10.8 24.1-24.2 24.1-13.3 0-24.1-10.8-24.1-24.1s10.8-24.1 24.1-24.1c13.4 0 24.2 10.8 24.2 24.1M3457.3 1710.5c0 13.3-10.8 24.1-24.2 24.1-13.3 0-24.1-10.8-24.1-24.1s10.8-24.1 24.1-24.1c13.4 0 24.2 10.8 24.2 24.1M4202.4 1253.4c0 13.3-10.8 24.2-24.1 24.2s-24.2-10.8-24.2-24.2c0-13.3 10.8-24.1 24.2-24.1 13.3-.1 24.1 10.8 24.1 24.1" class="st55"/>
      <path d="M4202.4 1253.4c0 13.3-10.8 24.2-24.1 24.2s-24.2-10.8-24.2-24.2c0-13.3 10.8-24.1 24.2-24.1 13.3-.1 24.1 10.8 24.1 24.1M4202.6 1141.9c0 13.3-10.8 24.2-24.1 24.2s-24.2-10.8-24.2-24.2c0-13.3 10.8-24.1 24.2-24.1 13.3 0 24.1 10.8 24.1 24.1M3954.1 1013.7c0 13.3-10.8 24.2-24.1 24.2s-24.2-10.8-24.2-24.2c0-13.3 10.8-24.1 24.2-24.1 13.3 0 24.1 10.8 24.1 24.1M3911.5 827.7c0 13.3-10.8 24.2-24.1 24.2s-24.2-10.8-24.2-24.2c0-13.3 10.8-24.1 24.2-24.1 13.3 0 24.1 10.8 24.1 24.1M3897.5 1089.7c0 13.3-10.8 24.2-24.1 24.2s-24.2-10.8-24.2-24.2c0-13.3 10.8-24.1 24.2-24.1 13.3 0 24.1 10.8 24.1 24.1M3256.3 4366.6c0 13.3-10.8 24.1-24.2 24.1-13.3 0-24.1-10.8-24.1-24.1s10.8-24.1 24.1-24.1c13.4 0 24.2 10.8 24.2 24.1M2814.1 4946.4c0 13.3-10.8 24.2-24.2 24.2-13.3 0-24.1-10.8-24.1-24.2 0-13.3 10.8-24.1 24.1-24.1 13.4 0 24.2 10.8 24.2 24.1M2723.1 5041.4c0 13.3-10.8 24.2-24.2 24.2-13.3 0-24.1-10.8-24.1-24.2 0-13.3 10.8-24.1 24.1-24.1 13.4 0 24.2 10.8 24.2 24.1M2836.1 4860.4c0 13.3-10.8 24.2-24.2 24.2-13.3 0-24.1-10.8-24.1-24.2 0-13.3 10.8-24.1 24.1-24.1 13.4 0 24.2 10.8 24.2 24.1M3163.3 4583.4c0 13.3-10.8 24.2-24.2 24.2-13.3 0-24.1-10.8-24.1-24.2 0-13.3 10.8-24.1 24.1-24.1 13.4 0 24.2 10.8 24.2 24.1M3162.8 4709c0 13.3-10.8 24.2-24.2 24.2-13.3 0-24.1-10.8-24.1-24.2 0-13.3 10.8-24.1 24.1-24.1 13.4 0 24.2 10.8 24.2 24.1M3024.2 4706.3c0 13.3-10.8 24.2-24.2 24.2-13.3 0-24.1-10.8-24.1-24.2 0-13.3 10.8-24.1 24.1-24.1 13.4 0 24.2 10.8 24.2 24.1M3768.8 1419c0 13.4-10.8 24.1-24.2 24.1-13.3 0-24.1-10.8-24.1-24.1s10.8-24.1 24.1-24.1c13.4 0 24.2 10.8 24.2 24.1M3671.7 1507.4c0 13.4-10.8 24.1-24.2 24.1-13.3 0-24.1-10.8-24.1-24.1s10.8-24.1 24.1-24.1c13.4-.1 24.2 10.8 24.2 24.1M2841.6 3967.5c0 13.3-10.8 24.2-24.1 24.2s-24.2-10.8-24.2-24.2c0-13.3 10.8-24.1 24.2-24.1 13.3 0 24.1 10.8 24.1 24.1M2478.5 6071.5c0 13.3-10.8 24.2-24.2 24.2-13.3 0-24.1-10.8-24.1-24.2 0-13.3 10.8-24.1 24.1-24.1 13.4 0 24.2 10.8 24.2 24.1M2853.1 5041.9c0 13.3-10.8 24.2-24.2 24.2-13.3 0-24.1-10.8-24.1-24.2 0-13.3 10.8-24.1 24.1-24.1 13.4 0 24.2 10.8 24.2 24.1M3109.9 5616.9c0 13.3-10.8 24.2-24.1 24.2-13.4 0-24.1-10.8-24.1-24.2 0-13.3 10.8-24.1 24.1-24.1 13.3-.1 24.1 10.8 24.1 24.1M3650.3 4805.2c0 13.3-10.8 24.1-24.1 24.1s-24.2-10.8-24.2-24.1 10.8-24.2 24.2-24.2c13.3.1 24.1 10.9 24.1 24.2M3522.9 4147.2c0 13.3-10.8 24.1-24.1 24.1s-24.1-10.8-24.1-24.1 10.8-24.1 24.1-24.1c13.4 0 24.1 10.8 24.1 24.1M3728.5 4347.5c0 13.4-10.8 24.2-24.1 24.2s-24.2-10.8-24.2-24.2c0-13.3 10.8-24.1 24.2-24.1 13.3 0 24.1 10.8 24.1 24.1M3565.1 4346.3c0 13.3-10.8 24.1-24.1 24.1-13.8 0-24.9-11.6-24.1-25.6.7-12 10.5-21.8 22.6-22.5 14-.9 25.6 10.2 25.6 24M2454.9 2203.1c0 13.3-10.8 24.1-24.2 24.1-13.3 0-24.1-10.8-24.1-24.1s10.8-24.1 24.1-24.1 24.2 10.8 24.2 24.1M1948 2091.9c0 13.3-10.8 24.1-24.2 24.1-13.3 0-24.1-10.8-24.1-24.1s10.8-24.1 24.1-24.1 24.2 10.8 24.2 24.1M1326.3 2159.9c0 13.3-10.8 24.1-24.2 24.1-13.3 0-24.1-10.8-24.1-24.1s10.8-24.1 24.1-24.1c13.4 0 24.2 10.8 24.2 24.1M2665.2 2413.5c0 13.3-10.8 24.1-24.2 24.1-13.3 0-24.1-10.8-24.1-24.1s10.8-24.1 24.1-24.1c13.4 0 24.2 10.8 24.2 24.1M2637.8 4190.7c0 13.3-10.8 24.2-24.1 24.2s-24.1-10.8-24.1-24.2c0-13.3 10.8-24.1 24.1-24.1s24.1 10.8 24.1 24.1" class="st55"/>
      <path d="M2454.9 2203.1c0 13.3-10.8 24.1-24.2 24.1-13.3 0-24.1-10.8-24.1-24.1s10.8-24.1 24.1-24.1 24.2 10.8 24.2 24.1M1948 2091.9c0 13.3-10.8 24.1-24.2 24.1-13.3 0-24.1-10.8-24.1-24.1s10.8-24.1 24.1-24.1 24.2 10.8 24.2 24.1M1326.3 2159.9c0 13.3-10.8 24.1-24.2 24.1-13.3 0-24.1-10.8-24.1-24.1s10.8-24.1 24.1-24.1c13.4 0 24.2 10.8 24.2 24.1M2665.2 2413.5c0 13.3-10.8 24.1-24.2 24.1-13.3 0-24.1-10.8-24.1-24.1s10.8-24.1 24.1-24.1c13.4 0 24.2 10.8 24.2 24.1M5185.6 1620.8c0 13.3-10.8 24.1-24.2 24.1-13.3 0-24.1-10.8-24.1-24.1s10.8-24.2 24.1-24.2c13.4 0 24.2 10.8 24.2 24.2M4863.7 2102.3c0 13.3-10.8 24.1-24.1 24.1s-24.2-10.8-24.2-24.1 10.8-24.2 24.2-24.2c13.3 0 24.1 10.8 24.1 24.2" class="st55"/>
    </g>
    <g class="st54">
      <path d="M3954.2 4164.7c0 25.2-20.4 45.6-45.6 45.6-25.2 0-45.6-20.4-45.6-45.6 0-25.2 20.4-45.6 45.6-45.6 25.2 0 45.6 20.4 45.6 45.6z" class="st90"/>
      <path d="M3932.7 4164.7c0 13.3-10.8 24.1-24.1 24.1s-24.1-10.8-24.1-24.1 10.8-24.1 24.1-24.1 24.1 10.8 24.1 24.1" class="st55"/>
    </g>
    <g class="st54">
      <path d="M3388.2 4301.7c0 25.2-20.4 45.6-45.6 45.6-25.2 0-45.6-20.4-45.6-45.6 0-25.2 20.4-45.6 45.6-45.6 25.2 0 45.6 20.4 45.6 45.6z" class="st90"/>
      <path d="M3366.7 4301.7c0 13.3-10.8 24.1-24.1 24.1s-24.1-10.8-24.1-24.1 10.8-24.1 24.1-24.1 24.1 10.8 24.1 24.1" class="st55"/>
    </g>
    <g class="st54">
      <path d="M3184 4449.3c0 25.2-20.4 45.6-45.6 45.6-25.2 0-45.6-20.4-45.6-45.6 0-25.2 20.4-45.6 45.6-45.6 25.2 0 45.6 20.4 45.6 45.6z" class="st90"/>
      <path d="M3162.5 4449.3c0 13.3-10.8 24.1-24.1 24.1s-24.1-10.8-24.1-24.1 10.8-24.1 24.1-24.1c13.2 0 24.1 10.7 24.1 24.1" class="st55"/>
    </g>
    <g class="st54">
      <path d="M3393.4 5078.4c0 25.2-20.4 45.6-45.6 45.6-25.2 0-45.6-20.4-45.6-45.6 0-25.2 20.4-45.6 45.6-45.6 25.1 0 45.6 20.4 45.6 45.6z" class="st90"/>
      <path d="M3371.9 5078.4c0 13.3-10.8 24.1-24.1 24.1s-24.1-10.8-24.1-24.1 10.8-24.1 24.1-24.1c13.2 0 24.1 10.8 24.1 24.1" class="st55"/>
    </g>
    <g class="st54">
      <path d="M3750.1 5658.2c0 25.2-20.4 45.6-45.6 45.6-25.2 0-45.6-20.4-45.6-45.6 0-25.2 20.4-45.6 45.6-45.6 25.2-.1 45.6 20.4 45.6 45.6z" class="st90"/>
      <path d="M3728.6 5658.2c0 13.3-10.8 24.1-24.1 24.1s-24.1-10.8-24.1-24.1 10.8-24.1 24.1-24.1c13.3-.1 24.1 10.7 24.1 24.1" class="st55"/>
    </g>
    <g class="st54">
      <path d="M2958.8 5584.2c0 25.2-20.4 45.6-45.6 45.6-25.2 0-45.6-20.4-45.6-45.6 0-25.2 20.4-45.6 45.6-45.6 25.2 0 45.6 20.4 45.6 45.6z" class="st90"/>
      <path d="M2937.3 5584.2c0 13.3-10.8 24.1-24.1 24.1s-24.1-10.8-24.1-24.1 10.8-24.1 24.1-24.1 24.1 10.8 24.1 24.1" class="st55"/>
    </g>
    <g class="st54">
      <path d="M2747.3 5540.1c0 25.2-20.4 45.6-45.6 45.6-25.2 0-45.6-20.4-45.6-45.6 0-25.2 20.4-45.6 45.6-45.6 25.2 0 45.6 20.4 45.6 45.6z" class="st90"/>
      <path d="M2725.8 5540.1c0 13.3-10.8 24.1-24.1 24.1s-24.1-10.8-24.1-24.1 10.8-24.1 24.1-24.1 24.1 10.8 24.1 24.1" class="st55"/>
    </g>
    <g class="st54">
      <path d="M2871.4 6285.8c0 25.2-20.4 45.6-45.6 45.6-25.2 0-45.6-20.4-45.6-45.6 0-25.2 20.4-45.6 45.6-45.6 25.2-.1 45.6 20.4 45.6 45.6z" class="st90"/>
      <path d="M2849.9 6285.8c0 13.3-10.8 24.1-24.1 24.1s-24.1-10.8-24.1-24.1 10.8-24.1 24.1-24.1 24.1 10.7 24.1 24.1" class="st55"/>
    </g>
    <g class="st54">
      <path d="M3070.3 3984.1c0 25.2-20.4 45.6-45.6 45.6-25.2 0-45.6-20.4-45.6-45.6 0-25.2 20.4-45.6 45.6-45.6 25.2 0 45.6 20.4 45.6 45.6z" class="st90"/>
      <path d="M3048.8 3984.1c0 13.3-10.8 24.1-24.1 24.1s-24.1-10.8-24.1-24.1 10.8-24.1 24.1-24.1 24.1 10.8 24.1 24.1" class="st55"/>
    </g>
    <g class="st54">
      <path d="M3360.7 3260.1c0 25.2-20.4 45.6-45.6 45.6-25.2 0-45.6-20.4-45.6-45.6 0-25.2 20.4-45.6 45.6-45.6 25.2 0 45.6 20.4 45.6 45.6z" class="st90"/>
      <path d="M3339.2 3260.1c0 13.3-10.8 24.1-24.1 24.1s-24.1-10.8-24.1-24.1 10.8-24.1 24.1-24.1 24.1 10.8 24.1 24.1" class="st55"/>
    </g>
    <g class="st54">
      <path d="M3285.3 3171c0 25.2-20.4 45.6-45.6 45.6-25.2 0-45.6-20.4-45.6-45.6 0-25.2 20.4-45.6 45.6-45.6 25.2-.1 45.6 20.4 45.6 45.6z" class="st90"/>
      <path d="M3263.8 3171c0 13.3-10.8 24.1-24.1 24.1s-24.1-10.8-24.1-24.1 10.8-24.1 24.1-24.1 24.1 10.7 24.1 24.1" class="st55"/>
    </g>
    <g class="st54">
      <path d="M3228.2 3098.7c0 25.2-20.4 45.6-45.6 45.6-25.2 0-45.6-20.4-45.6-45.6 0-25.2 20.4-45.6 45.6-45.6 25.2 0 45.6 20.4 45.6 45.6z" class="st90"/>
      <path d="M3206.7 3098.7c0 13.3-10.8 24.1-24.1 24.1s-24.1-10.8-24.1-24.1 10.8-24.1 24.1-24.1 24.1 10.8 24.1 24.1" class="st55"/>
    </g>
    <g class="st54">
      <path d="M3202.2 3006.7c0 25.2-20.4 45.6-45.6 45.6-25.2 0-45.6-20.4-45.6-45.6 0-25.2 20.4-45.6 45.6-45.6 25.2-.1 45.6 20.4 45.6 45.6z" class="st90"/>
      <path d="M3180.7 3006.7c0 13.3-10.8 24.1-24.1 24.1s-24.1-10.8-24.1-24.1 10.8-24.1 24.1-24.1c13.2 0 24.1 10.7 24.1 24.1" class="st55"/>
    </g>
    <g class="st54">
      <path d="M2946.1 2908.2c0 25.2-20.4 45.6-45.6 45.6-25.2 0-45.6-20.4-45.6-45.6 0-25.2 20.4-45.6 45.6-45.6 25.2 0 45.6 20.4 45.6 45.6z" class="st90"/>
      <path d="M2924.7 2908.2c0 13.3-10.8 24.1-24.1 24.1s-24.1-10.8-24.1-24.1 10.8-24.1 24.1-24.1c13.2 0 24.1 10.8 24.1 24.1" class="st55"/>
    </g>
    <g class="st54">
      <path d="M3502.2 1549c0 25.2-20.4 45.6-45.6 45.6-25.2 0-45.6-20.4-45.6-45.6 0-25.2 20.4-45.6 45.6-45.6 25.2 0 45.6 20.4 45.6 45.6z" class="st90"/>
      <path d="M3480.7 1549c0 13.3-10.8 24.1-24.1 24.1s-24.1-10.8-24.1-24.1 10.8-24.1 24.1-24.1 24.1 10.7 24.1 24.1" class="st55"/>
    </g>
    <g class="st54">
      <path d="M3692.8 1426c0 25.2-20.4 45.6-45.6 45.6-25.2 0-45.6-20.4-45.6-45.6 0-25.2 20.4-45.6 45.6-45.6 25.2 0 45.6 20.4 45.6 45.6z" class="st90"/>
      <path d="M3671.3 1426c0 13.3-10.8 24.1-24.1 24.1s-24.1-10.8-24.1-24.1 10.8-24.1 24.1-24.1 24.1 10.7 24.1 24.1" class="st55"/>
    </g>
    <g class="st54">
      <path d="M4350.1 1384c0 25.2-20.4 45.6-45.6 45.6-25.2 0-45.6-20.4-45.6-45.6 0-25.2 20.4-45.6 45.6-45.6 25.2 0 45.6 20.4 45.6 45.6z" class="st90"/>
      <path d="M4328.6 1384c0 13.3-10.8 24.1-24.1 24.1s-24.1-10.8-24.1-24.1 10.8-24.1 24.1-24.1 24.1 10.8 24.1 24.1" class="st55"/>
    </g>
    <g class="st54">
      <path d="M4518.7 1405.8c0 25.2-20.4 45.6-45.6 45.6-25.2 0-45.6-20.4-45.6-45.6 0-25.2 20.4-45.6 45.6-45.6 25.2-.1 45.6 20.4 45.6 45.6z" class="st90"/>
      <path d="M4497.2 1405.8c0 13.3-10.8 24.1-24.1 24.1s-24.1-10.8-24.1-24.1 10.8-24.1 24.1-24.1 24.1 10.7 24.1 24.1" class="st55"/>
    </g>
    <g class="st54">
      <path d="M4403.5 1286.3c0 25.2-20.4 45.6-45.6 45.6-25.2 0-45.6-20.4-45.6-45.6 0-25.2 20.4-45.6 45.6-45.6 25.2 0 45.6 20.4 45.6 45.6z" class="st90"/>
      <path d="M4382 1286.3c0 13.3-10.8 24.1-24.1 24.1s-24.1-10.8-24.1-24.1 10.8-24.1 24.1-24.1 24.1 10.8 24.1 24.1" class="st55"/>
    </g>
    <g class="st54">
      <path d="M4704.4 1486.8c0 25.2-20.4 45.6-45.6 45.6-25.2 0-45.6-20.4-45.6-45.6 0-25.2 20.4-45.6 45.6-45.6 25.2 0 45.6 20.4 45.6 45.6z" class="st90"/>
      <path d="M4682.9 1486.8c0 13.3-10.8 24.1-24.1 24.1s-24.1-10.8-24.1-24.1 10.8-24.1 24.1-24.1 24.1 10.8 24.1 24.1" class="st55"/>
    </g>
    <g class="st54">
      <path d="M5134.4 1844.9c0 25.2-20.4 45.6-45.6 45.6-25.2 0-45.6-20.4-45.6-45.6 0-25.2 20.4-45.6 45.6-45.6 25.2 0 45.6 20.4 45.6 45.6z" class="st90"/>
      <path d="M5112.9 1844.9c0 13.3-10.8 24.1-24.1 24.1s-24.1-10.8-24.1-24.1 10.8-24.1 24.1-24.1 24.1 10.8 24.1 24.1" class="st55"/>
    </g>
    <g class="st54">
      <path d="M5015.6 1961.7c0 25.2-20.4 45.6-45.6 45.6-25.2 0-45.6-20.4-45.6-45.6 0-25.2 20.4-45.6 45.6-45.6 25.2 0 45.6 20.4 45.6 45.6z" class="st90"/>
      <path d="M4994.1 1961.7c0 13.3-10.8 24.1-24.1 24.1s-24.1-10.8-24.1-24.1 10.8-24.1 24.1-24.1 24.1 10.7 24.1 24.1" class="st55"/>
    </g>
  </g>
  <g id="NewDroplets" class="st52">
    <g id="Droplet_1_" class="st54">
      <path d="M1947.6 6254.1c0 22.8-18.5 41.3-41.3 41.3-22.9 0-41.3-18.5-41.3-41.3 0-22.9 18.5-41.3 41.3-41.3 22.8-.1 41.3 18.4 41.3 41.3"/>
      <image width="799" height="1072" overflow="visible" transform="matrix(.24 0 0 .24 1810.589 6043.7)" xlink:href="8D44E83E5945A26B.png"/>
      <path d="M1906.4 6086.3c28.9 0 53.1 24.3 53.1 53.2 0 32.8-46.3 68.5-53.1 118.8h-.2c-6.8-50.3-53.1-86-53.1-118.8 0-28.9 24.2-53.2 53.1-53.2" class="st55"/>
      <circle cx="1906.4" cy="6139.4" r="27.6" class="st60"/>
    </g>
    <g id="Droplet_2_" class="st54">
      <path d="M3601.1 5791.8c0 22.8-18.5 41.3-41.3 41.3-22.9 0-41.3-18.5-41.3-41.3 0-22.9 18.5-41.3 41.3-41.3 22.8-.1 41.3 18.4 41.3 41.3"/>
      <image width="799" height="1072" overflow="visible" transform="matrix(.24 0 0 .24 3464.115 5581.392)" xlink:href="8D44E83E5945A276.png"/>
      <path d="M3559.9 5624c28.9 0 53.1 24.3 53.1 53.2 0 32.8-46.3 68.5-53.1 118.8h-.2c-6.8-50.3-53.1-86-53.1-118.8 0-28.9 24.2-53.2 53.1-53.2" class="st55"/>
      <circle cx="3559.9" cy="5677.1" r="27.6" class="st60"/>
    </g>
    <g id="Droplet_33_" class="st54">
      <path d="M5000.6 2380.1c0 22.8-18.5 41.3-41.3 41.3-22.9 0-41.3-18.5-41.3-41.3 0-22.9 18.5-41.3 41.3-41.3 22.8 0 41.3 18.5 41.3 41.3"/>
      <image width="799" height="1072" overflow="visible" transform="matrix(.24 0 0 .24 4863.395 2169.743)" xlink:href="8D44E83E5945A279.png"/>
      <path d="M4959.4 2212.3c28.9 0 53.1 24.3 53.1 53.2 0 32.8-46.3 68.5-53.1 118.8h-.2c-6.8-50.3-53.1-86-53.1-118.8 0-28.9 24.2-53.2 53.1-53.2" class="st55"/>
      <circle cx="4959.4" cy="2265.4" r="27.6" class="st60"/>
    </g>
  </g>
  <g id="clock" class="st52">
    <path fill="#9ba2a7" d="M5546.8 6170.9h868.1v294.6h-868.1z"/>
    <text fill="#f6f6f6" font-size="130" letter-spacing="6" class="st56" transform="translate(5629.229 6365.394)">
      Year: 2009
    </text>
  </g>
  <g id="Offices" class="st52">
    <g id="Droplet_12_" class="st54">
      <path d="M2943.5 4948.5c0 22.8-18.5 41.3-41.3 41.3-22.9 0-41.3-18.5-41.3-41.3 0-22.9 18.5-41.3 41.3-41.3 22.7-.1 41.3 18.4 41.3 41.3"/>
      <image width="799" height="1073" overflow="visible" transform="matrix(.24 0 0 .24 2806.355 4737.983)" xlink:href="8D44E83E5945A27A.png"/>
      <path d="M2902.2 4780.7c28.9 0 53.1 24.3 53.1 53.2 0 32.8-46.3 68.5-53.1 118.8h-.2c-6.8-50.3-53.1-86-53.1-118.8 0-28.9 24.2-53.2 53.1-53.2" class="st55"/>
      <circle cx="2902.2" cy="4833.7" r="27.6" class="st60"/>
    </g>
    <g id="Droplet_21_" class="st54">
      <path d="M1601.6 1881c0 22.8-18.5 41.3-41.3 41.3-22.9 0-41.3-18.5-41.3-41.3 0-22.9 18.5-41.3 41.3-41.3 22.8-.1 41.3 18.4 41.3 41.3"/>
      <image width="799" height="1073" overflow="visible" transform="matrix(.24 0 0 .24 1464.515 1670.543)" xlink:href="8D44E83E5945A27B.png"/>
      <path d="M1560.4 1713.2c28.9 0 53.1 24.3 53.1 53.2 0 32.8-46.3 68.5-53.1 118.8h-.2c-6.8-50.3-53.1-86-53.1-118.8 0-28.9 24.2-53.2 53.1-53.2" class="st55"/>
      <circle cx="1560.4" cy="1766.2" r="27.6" class="st60"/>
    </g>
    <g id="Droplet_30_" class="st54">
      <path d="M4623 1561.2c0 22.8-18.5 41.3-41.3 41.3-22.9 0-41.3-18.5-41.3-41.3 0-22.9 18.5-41.3 41.3-41.3 22.7 0 41.3 18.5 41.3 41.3"/>
      <image width="799" height="1072" overflow="visible" transform="matrix(.24 0 0 .24 4485.875 1350.863)" xlink:href="8D44E83E5945A27E.png"/>
      <path d="M4581.7 1393.4c28.9 0 53.1 24.3 53.1 53.2 0 32.8-46.3 68.5-53.1 118.8h-.2c-6.8-50.3-53.1-86-53.1-118.8 0-28.9 24.2-53.2 53.1-53.2" class="st55"/>
      <circle cx="4581.7" cy="1446.5" r="27.6" class="st60"/>
    </g>
    <g id="Droplet_34_" class="st54">
      <path d="M3127.1 5616.6c0 22.8-18.5 41.3-41.3 41.3-22.9 0-41.3-18.5-41.3-41.3 0-22.9 18.5-41.3 41.3-41.3 22.8-.1 41.3 18.4 41.3 41.3"/>
      <image width="799" height="1073" overflow="visible" transform="matrix(.24 0 0 .24 2989.955 5406.143)" xlink:href="8D44E83E5945A278.png"/>
      <path d="M3085.9 5448.8c28.9 0 53.1 24.3 53.1 53.2 0 32.8-46.3 68.5-53.1 118.8h-.2c-6.8-50.3-53.1-86-53.1-118.8 0-28.9 24.2-53.2 53.1-53.2" class="st55"/>
      <circle cx="3085.9" cy="5501.9" r="27.6" class="st60"/>
    </g>
    <g id="Droplet_35_" class="st54">
      <path d="M6780.2 4265.5c0 22.8-18.5 41.3-41.3 41.3-22.9 0-41.3-18.5-41.3-41.3 0-22.9 18.5-41.3 41.3-41.3 22.7-.1 41.3 18.4 41.3 41.3"/>
      <image width="799" height="1073" overflow="visible" transform="matrix(.24 0 0 .24 6642.995 4054.943)" xlink:href="8D44E83E5945A266.png"/>
      <path d="M6738.9 4097.7c28.9 0 53.1 24.3 53.1 53.2 0 32.8-46.3 68.5-53.1 118.8h-.2c-6.8-50.3-53.1-86-53.1-118.8 0-28.9 24.2-53.2 53.1-53.2" class="st55"/>
      <circle cx="6738.9" cy="4150.8" r="27.6" class="st60"/>
    </g>
    <g id="Droplet_25_" class="st54">
      <path d="M3619.7 1642.7c0 22.8-18.5 41.3-41.3 41.3-22.9 0-41.3-18.5-41.3-41.3 0-22.9 18.5-41.3 41.3-41.3 22.8 0 41.3 18.4 41.3 41.3"/>
      <image width="799" height="1073" overflow="visible" transform="matrix(.24 0 0 .24 3482.675 1432.223)" xlink:href="6AF59102E7107A1D.png"/>
      <path d="M3578.5 1474.9c28.9 0 53.1 24.3 53.1 53.2 0 32.8-46.3 68.5-53.1 118.8h-.2c-6.8-50.3-53.1-86-53.1-118.8 0-28.9 24.2-53.2 53.1-53.2" class="st55"/>
      <circle cx="3578.5" cy="1528" r="27.6" class="st60"/>
    </g>
    <g id="Droplet_14_" class="st54">
      <path d="M3310 5160.9c0 22.8-18.5 41.3-41.3 41.3-22.9 0-41.3-18.5-41.3-41.3 0-22.9 18.5-41.3 41.3-41.3 22.7 0 41.3 18.5 41.3 41.3"/>
      <image width="799" height="1073" overflow="visible" transform="matrix(.24 0 0 .24 3172.835 4950.383)" xlink:href="6AF59102E7107A1A.png"/>
      <path d="M3268.7 4993.1c28.9 0 53.1 24.3 53.1 53.2 0 32.8-46.3 68.5-53.1 118.8h-.2c-6.8-50.3-53.1-86-53.1-118.8 0-28.9 24.2-53.2 53.1-53.2" class="st55"/>
      <circle cx="3268.7" cy="5046.2" r="27.6" class="st60"/>
    </g>
    <g id="Droplet_24_" class="st54">
      <path d="M3998 1314.1c0 22.8-18.5 41.3-41.3 41.3-22.9 0-41.3-18.5-41.3-41.3 0-22.9 18.5-41.3 41.3-41.3 22.8 0 41.3 18.4 41.3 41.3"/>
      <image width="799" height="1073" overflow="visible" transform="matrix(.24 0 0 .24 3860.915 1103.663)" xlink:href="6AF59102E7107A16.png"/>
      <path d="M3956.8 1146.3c28.9 0 53.1 24.3 53.1 53.2 0 32.8-46.3 68.5-53.1 118.8h-.2c-6.8-50.3-53.1-86-53.1-118.8 0-28.9 24.2-53.2 53.1-53.2" class="st55"/>
      <circle cx="3956.8" cy="1199.4" r="27.6" class="st60"/>
    </g>
    <g id="Droplet_6_" class="st54">
      <path d="M3344.1 3610c0 22.8-18.5 41.3-41.3 41.3-22.9 0-41.3-18.5-41.3-41.3 0-22.9 18.5-41.3 41.3-41.3 22.7-.1 41.3 18.4 41.3 41.3"/>
      <image width="799" height="1073" overflow="visible" transform="matrix(.24 0 0 .24 3206.915 3399.503)" xlink:href="6AF59102E7107A09.png"/>
      <path d="M3302.8 3442.2c28.9 0 53.1 24.3 53.1 53.2 0 32.8-46.3 68.5-53.1 118.8h-.2c-6.8-50.3-53.1-86-53.1-118.8 0-28.9 24.2-53.2 53.1-53.2" class="st55"/>
      <circle cx="3302.8" cy="3495.3" r="27.6" class="st60"/>
    </g>
    <g id="Droplet_10_" class="st54">
      <path d="M3745.4 3972.3c0 22.8-18.5 41.3-41.3 41.3-22.9 0-41.3-18.5-41.3-41.3 0-22.9 18.5-41.3 41.3-41.3 22.7-.1 41.3 18.4 41.3 41.3"/>
      <image width="799" height="1072" overflow="visible" transform="matrix(.24 0 0 .24 3608.195 3761.903)" xlink:href="6AF59102E7107A0A.png"/>
      <path d="M3704.1 3804.5c28.9 0 53.1 24.3 53.1 53.2 0 32.8-46.3 68.5-53.1 118.8h-.2c-6.8-50.3-53.1-86-53.1-118.8 0-28.9 24.2-53.2 53.1-53.2" class="st55"/>
      <circle cx="3704.1" cy="3857.6" r="27.6" class="st60"/>
    </g>
  </g>
</svg>
